<svg width="89" height="84" viewBox="0 0 89 84" fill="none" xmlns="http://www.w3.org/2000/svg">
<circle cx="55" cy="44" r="34" fill="#E9F5E1"/>
<path d="M59.06 59.04H59.05C59.02 58.95 58.99 58.85 58.96 58.76C58.96 58.76 55.42 49.9 53.58 46.42C53.44 46.12 53.25 45.84 52.98 45.43C52.1 44.1 50.2 43.83 48.89 44.32C47.82 44.72 47.22 45.45 46.88 46.41C45.93 44.32 43.73 43.45 41.73 44.22C40.45 44.71 39.63 45.77 39.28 47.02C38.19 45.27 36.14 44.59 34.26 45.31C32.63 45.94 31.61 47.44 31.61 49.16L26.49 35.81C25.59 33.46 23.25 32.17 21.27 32.93C19.29 33.69 18.41 36.21 19.32 38.57L28.29 61.96C27.22 60.67 26.26 59.54 25.55 58.75C23.01 55.94 19.76 54.85 17.9 56.06C15.12 57.86 19.16 61.83 21.44 65.16C23.31 67.89 27.08 73.01 28.16 74.19C30.05 76.23 31.88 77.89 33.45 78.88C38.56 82.57 44.4 82.79 49.93 80.67C56.59 78.08 63.6 70.87 59.06 59.04Z" stroke="url(#paint0_linear_2_270)" stroke-width="2.5" stroke-miterlimit="10" stroke-linecap="round" stroke-linejoin="round"/>
<path d="M14.1201 35.8501C12.7201 32.0001 9.66006 28.9401 5.81006 27.5401V14.1201C9.66006 12.7201 12.7201 9.66006 14.1201 5.81006H56.9301C58.3301 9.66006 61.3901 12.7201 65.2401 14.1201V27.5401C61.3901 28.9401 58.3301 32.0001 56.9301 35.8501H31.9301" stroke="url(#paint1_linear_2_270)" stroke-width="2.5" stroke-miterlimit="10" stroke-linecap="round" stroke-linejoin="round"/>
<path d="M14.39 39.66H2V2H69.06V39.66H33.17" stroke="#032305" stroke-width="2.5" stroke-miterlimit="10" stroke-linecap="round" stroke-linejoin="round"/>
<path d="M2.18994 9.98001C6.10994 9.15001 9.18994 6.06 9.99994 2.13" stroke="#032305" stroke-width="2.5" stroke-miterlimit="10" stroke-linecap="round" stroke-linejoin="round"/>
<path d="M61.0801 2.17993C61.9101 6.13993 65.0701 9.24993 69.0601 10.0199" stroke="#032305" stroke-width="2.5" stroke-miterlimit="10" stroke-linecap="round" stroke-linejoin="round"/>
<path d="M9.97012 39.43C9.13012 35.53 6.04013 32.47 2.13013 31.67" stroke="#032305" stroke-width="2.5" stroke-miterlimit="10" stroke-linecap="round" stroke-linejoin="round"/>
<path d="M68.9001 31.6799C64.9701 32.4999 61.8801 35.5999 61.0701 39.5399" stroke="#032305" stroke-width="2.5" stroke-miterlimit="10" stroke-linecap="round" stroke-linejoin="round"/>
<path d="M31.8406 21.0201H37.3422C39.3595 21.0201 41.01 19.3696 41.01 17.3523C41.01 15.3351 39.3595 13.6846 37.3422 13.6846H28.1728" stroke="#282D33" stroke-width="3" stroke-linejoin="round"/>
<path d="M31.8406 10.0168V32.0235" stroke="#282D33" stroke-width="3" stroke-linejoin="round"/>
<path d="M37.3422 13.6846V10.0168" stroke="#282D33" stroke-width="3" stroke-linejoin="round"/>
<path d="M37.3422 30.1896V32.0235" stroke="#282D33" stroke-width="3" stroke-linejoin="round"/>
<path d="M31.8406 21.0201H39.1761C41.1934 21.0201 42.8439 22.6706 42.8439 24.6879C42.8439 26.7052 41.1934 28.3557 39.1761 28.3557H28.1728" stroke="#282D33" stroke-width="3" stroke-linejoin="round"/>
<defs>
<linearGradient id="paint0_linear_2_270" x1="12.0835" y1="25.241" x2="62.5881" y2="24.3842" gradientUnits="userSpaceOnUse">
<stop stop-color="#6ABD36"/>
<stop offset="1" stop-color="#058E34"/>
</linearGradient>
<linearGradient id="paint1_linear_2_270" x1="-0.842552" y1="1.25855" x2="68.0017" y2="-1.35769" gradientUnits="userSpaceOnUse">
<stop stop-color="#6ABD36"/>
<stop offset="1" stop-color="#058E34"/>
</linearGradient>
</defs>
</svg>
