<svg width="108" height="93" viewBox="0 0 108 93" fill="none" xmlns="http://www.w3.org/2000/svg">
<ellipse cx="73.2576" cy="34" rx="34.2576" ry="34" fill="#E9F5E1"/>
<path d="M93.6579 56.8947V78.2105" stroke="#032305" stroke-width="3" stroke-linejoin="round"/>
<path d="M8.39471 78.2105V31.3158C8.39471 28.9711 10.3131 27.0526 12.6579 27.0526H46.7631" stroke="#032305" stroke-width="3" stroke-linejoin="round"/>
<path d="M2 82.4737V86.7369C2 89.0816 3.91842 91 6.26316 91H95.7895C98.1342 91 100.053 89.0816 100.053 86.7369V82.4737H2Z" stroke="#032305" stroke-width="3" stroke-linejoin="round"/>
<path d="M46.7632 78.2105V73.9474C46.7632 69.2366 42.9476 65.4211 38.2369 65.4211H23.3158C18.605 65.4211 14.7895 69.2366 14.7895 73.9474V78.2105" stroke="#032305" stroke-width="3" stroke-linejoin="round"/>
<path d="M30.7763 59.0263C34.8967 59.0263 38.2368 55.6861 38.2368 51.5658C38.2368 47.4454 34.8967 44.1053 30.7763 44.1053C26.656 44.1053 23.3158 47.4454 23.3158 51.5658C23.3158 55.6861 26.656 59.0263 30.7763 59.0263Z" stroke="#032305" stroke-width="3" stroke-linejoin="round"/>
<path d="M91.5263 10H100.053V50.5H70.2105L57.421 63.2895V50.5H48.8947V10H63.8158H91.5263Z" stroke="url(#paint0_linear_2_286)" stroke-width="3" stroke-linejoin="round"/>
<path d="M57.4211 44.1052V35.5789" stroke="#35A535" stroke-width="3" stroke-linejoin="round"/>
<path d="M65.9474 44.1052V31.3158" stroke="#35A535" stroke-width="3" stroke-linejoin="round"/>
<path d="M74.4737 44.1052V18.5263" stroke="#35A535" stroke-width="3" stroke-linejoin="round"/>
<path d="M83 44.1052V24.921" stroke="#35A535" stroke-width="3" stroke-linejoin="round"/>
<path d="M91.5264 44.1052V16.3947" stroke="#35A535" stroke-width="3" stroke-linejoin="round"/>
<defs>
<linearGradient id="paint0_linear_2_286" x1="43.1681" y1="1.92585" x2="102.495" y2="0.831822" gradientUnits="userSpaceOnUse">
<stop stop-color="#6ABD36"/>
<stop offset="1" stop-color="#058E34"/>
</linearGradient>
</defs>
</svg>
