<svg width="1327" height="847" fill="none" xmlns="http://www.w3.org/2000/svg"><g clip-path="url(#clip0_2_23)"><g opacity=".26"><path opacity=".41" d="M1326.28 623.756H957.708l-.224.224-251.208 250.984.538-.224H590.751l-.224.224-35.701 35.656.537-.224H0v1.568h555.721l.224-.224 35.702-35.656-.583.224h116.108l.224-.224L958.559 625.1l-.538.224h368.259v-1.568z" fill="url(#paint0_linear_2_23)"/><path opacity=".6" d="M1321.35 618.829H952.781l-.224.224-251.208 250.983.537-.224H585.823l-.223.224-35.702 35.657.538-.224H0v1.568h550.794l.224-.224 35.701-35.657-.537.224h116.063l.224-.224 251.207-250.984-.582.224h368.256v-1.567z" fill="url(#paint1_linear_2_23)"/><path opacity=".6" d="M1316.42 613.901H947.853l-.224.224-251.208 250.984.538-.224H580.896l-.224.224-35.701 35.657.537-.224H0v1.568h545.867l.224-.224 35.701-35.657-.538.224h116.063l.224-.224 251.208-250.984-.582.269h368.253v-1.613z" fill="url(#paint2_linear_2_23)"/></g><g opacity=".6"><path opacity=".41" d="M1311.5 415.371H942.926l-.224.224-251.208 250.94.537-.224H575.969l-.224.224-35.702 35.701.538-.224H.001v1.568h540.938l.224-.224 35.702-35.702-.538.224H692.39l.224-.224 251.208-250.939-.583.224H1311.5v-1.568z" fill="url(#paint3_linear_2_23)"/></g><path opacity=".13" d="M1326.28 281.212H957.708l-.224.269L706.276 532.42l.538-.224H590.751l-.224.224-35.701 35.656.537-.224H0v1.568h555.721l.224-.224 35.702-35.656-.583.224h116.108l.224-.224 251.163-250.984-.538.224h368.259v-1.568z" fill="url(#paint4_linear_2_23)"/><g opacity=".18"><path opacity=".41" d="M.09 307.417h358.312l-.583-.224 251.208 250.939.224.224h116.063l-.538-.224 35.702 35.701.224.224h555.718v-1.568H761.06l.537.224-35.701-35.701-.224-.224H609.565l.582.224-251.208-250.939-.224-.224H.09v1.568z" fill="url(#paint5_linear_2_23)"/><path opacity=".41" d="M.493 302.489H363.33l-.582-.224 251.208 250.939.224.224h116.063l-.538-.224 35.701 35.701.224.224h555.721v-1.568H765.943l.582.224-35.701-35.701-.224-.224H614.492l.583.224-251.208-250.939-.224-.224H.493v1.568z" fill="url(#paint6_linear_2_23)"/><path opacity=".41" d="M0 297.562h368.256l-.582-.224 251.208 250.939.224.268h116.063l-.538-.268 35.701 35.701.224.224h555.724v-1.568H770.87l.582.224-35.701-35.656-.224-.269H619.419l.583.269-251.208-250.984-.224-.224H0v1.568z" fill="url(#paint7_linear_2_23)"/></g><g opacity=".6"><path opacity=".16" d="M0 366.456h368.256l-.582-.224 251.208 250.984.224.224h116.063l-.538-.224 35.701 35.656.224.224h555.724v-1.568H770.87l.582.224-35.701-35.656-.224-.224H619.419l.583.224-251.208-250.984-.224-.224H0v1.568z" fill="url(#paint8_linear_2_23)"/></g><g opacity=".6"><path opacity=".2" d="M-119 98.568h368.256l-.582-.224 251.208 250.939.224.224h116.062l-.537-.224 35.701 35.701.224.224h555.724v-1.568H651.87l.582.224-35.701-35.701-.224-.224H500.419l.583.224L249.794 97.224 249.57 97H-119v1.568z" fill="url(#paint9_linear_2_23)"/></g><g opacity=".77"><path opacity=".15" d="M704.53 1148.61V862.332l-.224-.314-128.65-157.453.224.672v-85.558l-.269-.313-362.03-401.628.269.716V.842h-1.568v218.015l.269.314 361.985 401.628-.224-.717v85.558l.224.269 128.65 157.498-.224-.672v285.875h1.568z" fill="url(#paint10_linear_2_23)"/></g><g opacity=".2"><path opacity=".41" d="M1109.02 1148.61V862.332l-.22-.314-128.65-157.453.224.672v-85.558l-.269-.313L618.12 217.738l.224.716V.842h-1.568v218.015l.269.314L979.03 620.799l-.224-.717v85.558l.224.269 128.65 157.498-.22-.672v285.875h1.56z" fill="url(#paint11_linear_2_23)"/><path opacity=".41" d="M1096.71 1148.61V862.332l-.23-.314-128.649-157.453.224.672v-85.558l-.269-.313-361.985-401.628.224.716V.842h-1.567v218.015l.268.314 361.985 401.628-.224-.717v85.558l.224.269 128.649 157.498-.22-.672v285.875h1.57z" fill="url(#paint12_linear_2_23)"/><path opacity=".41" d="M1084.43 1148.61V862.332l-.27-.314-128.647-157.453.224.672v-85.558l-.269-.313-361.985-401.628.269.716V.842h-1.613v218.015l.269.314 362.029 401.628-.268-.717v85.558l.224.269 128.697 157.498-.27-.672v285.875h1.61z" fill="url(#paint13_linear_2_23)"/></g><g opacity=".17"><path opacity=".41" d="M1286.1.842v285.879l.22-.672-128.65 157.498-.22.269v85.557l.22-.716-361.984 401.628-.269.269v218.056h1.568V931.002l-.224.716L1158.75 530.09l.26-.313v-85.558l-.22.672 128.65-157.498.22-.269V.842h-1.56z" fill="url(#paint14_linear_2_23)"/><path d="M1273.78.842v285.879l.22-.672-128.65 157.498-.22.269v85.557l.27-.716-362.032 401.628-.269.269v218.056h1.613V931.002l-.269.716L1146.43 530.09l.27-.313v-85.558l-.23.672 128.65-157.498.23-.269V.842h-1.57z" fill="url(#paint15_linear_2_23)"/><path opacity=".41" d="M1261.46.842v285.879l.27-.672-128.7 157.498-.22.269v85.557l.27-.716-362.031 401.628-.269.269v218.056h1.613V931.002l-.269.716L1134.11 530.09l.27-.313v-85.558l-.23.672 128.65-157.498.27-.269V.842h-1.61z" fill="url(#paint16_linear_2_23)"/></g><g opacity=".13"><path opacity=".41" d="M597.291 1162.32V876.442l.224.672L468.82 719.616l-.224-.269V633.79l.269.717-362.03-401.629-.224-.313V14.55h1.568v217.612l-.269-.717 361.985 401.628.269.314v85.557l-.224-.672 128.695 157.453.224.314v286.281h-1.568z" fill="url(#paint17_linear_2_23)"/><path d="M584.972 1162.32V876.442l.224.672-128.694-157.498-.224-.269V633.79l.268.717L94.561 232.878l-.268-.313V14.55h1.567v217.612l-.268-.717 362.03 401.628.224.314v85.557l-.224-.672 128.694 157.453.224.314v286.281h-1.568z" fill="url(#paint18_linear_2_23)"/><path opacity=".41" d="M572.654 1162.32V876.442l.224.672-128.695-157.498-.224-.269V633.79l.269.717L82.243 232.878l-.269-.313V14.55h1.568v217.612l-.269-.717 362.03 401.628.269.314v85.557l-.269-.672 128.695 157.453.224.314v286.281h-1.568z" fill="url(#paint19_linear_2_23)"/></g><g opacity=".09"><path d="M365.927 1148.61V862.735l-.224.672 128.695-157.498.224-.269v-85.558l-.269.717 361.985-401.628.269-.314V.842h-1.568v217.612l.269-.716-362.03 401.628-.224.313v85.558l.224-.672-128.694 157.453-.224.314v286.278h1.567z" fill="url(#paint20_linear_2_23)"/><path opacity=".41" d="M378.246 1148.61V862.735l-.224.672 128.65-157.498.269-.269v-85.558l-.269.717 361.985-401.628.269-.314V.842h-1.568v217.612l.269-.716-362.03 401.628-.269.313v85.558l.269-.672-128.695 157.453-.224.314v286.278h1.568z" fill="url(#paint21_linear_2_23)"/><path opacity=".77" d="M390.564 1148.61V862.735l-.224.672 128.65-157.498.224-.269v-85.558l-.224.717 361.985-401.628.269-.314V.842h-1.568v217.612l.224-.716-361.985 401.628-.268.313v85.558l.224-.672-128.65 157.453-.224.314v286.278h1.567z" fill="url(#paint22_linear_2_23)"/></g><g opacity=".14"><path opacity=".41" d="M277.861 1148.61V725.574l-.224.672 20.964-25.623.224-.269v-29.43l-.224-.268-20.964-25.623.224.672v-46.721l-.224.672 52.365-64.011.224-.314v-99.085l-.224.672 101.863-124.709.224-.268V178.139l-.224-.313-42.645-52.141.269.672V.842h-1.613V126.76l.269.269 42.6 52.185-.224-.672v132.995l.224-.716-101.863 124.708-.224.313v99.086l.224-.672-52.365 64.056-.224.269v47.527l.224.269 20.964 25.622-.224-.672v28.624l.224-.672-20.964 25.623-.224.269v423.439h1.568z" fill="url(#paint23_linear_2_23)"/><path opacity=".41" d="M269.261 1148.61V725.574l-.224.672 20.919-25.623.224-.269v-29.43l-.224-.268-20.919-25.623.224.672v-46.721l-.224.672 52.32-64.011.224-.314v-99.085l-.224.672 101.907-124.709.224-.268V178.139l-.224-.313-42.644-52.141.224.672V.842h-1.568V126.76l.224.269 42.645 52.185-.224-.672v132.995l.224-.716-101.908 124.708-.224.313v99.086l.224-.672-52.32 64.056-.224.269v47.527l.224.269 20.919 25.622-.224-.672v28.624l.224-.672-20.919 25.623-.224.269v423.439h1.568z" fill="url(#paint24_linear_2_23)"/><path opacity=".77" d="M295.107 1148.61V725.574l-.224.672 20.919-25.623.269-.269v-29.43l-.269-.268-20.919-25.623.224.672v-46.721l-.224.672 52.32-64.011.269-.314v-99.085l-.269.672 101.908-124.709.224-.268V178.139l-.224-.313-42.644-52.141.223.672V.842h-1.567V126.76l.224.269 42.644 52.185-.224-.672v132.995l.224-.716-101.908 124.708-.224.313v99.086l.224-.672-52.32 64.056-.224.269v47.527l.224.269 20.964 25.622-.269-.672v28.624l.269-.672-20.964 25.623-.224.269v423.439h1.568z" fill="url(#paint25_linear_2_23)"/><path opacity=".41" d="M303.752 1148.61V725.574l-.268.672 20.963-25.623.224-.269v-29.43l-.224-.268-20.963-25.623.268.672v-46.721l-.268.672 52.364-64.011.224-.314v-99.085l-.224.672 101.863-124.709.269-.268V178.139l-.269-.313-42.599-52.141.224.672V.842h-1.568V126.76l.224.269 42.644 52.185-.269-.672v132.995l.269-.716-101.908 124.708-.223.313v99.086l.224-.672-52.321 64.056-.224.269v47.527l.224.269 20.92 25.622-.224-.672v28.624l.224-.672-20.92 25.623-.224.269v423.439h1.568z" fill="url(#paint26_linear_2_23)"/></g><g opacity=".08"><path opacity=".77" d="M1073.9.842v423.399l.23.313 20.96 25.623-.27-.717v28.668l.27-.716-20.96 25.622-.23.314v47.482l.23.314 52.36 64.056-.22-.672v99.086l.22.268 101.87 124.708-.23-.671v132.995l.23-.672-42.65 52.188-.22.27v125.91h1.61V1023.1l-.27.67 42.65-52.185.22-.268V837.515l-.22-.268-101.91-124.709.27.672v-99.085l-.27-.314-52.32-64.056.22.717v-46.721l-.22.672 20.96-25.623.23-.268v-29.43l-.23-.314-20.96-25.622.22.671V.842h-1.57z" fill="url(#paint27_linear_2_23)"/><path d="M1082.55.842v423.399l.22.313 20.92 25.623-.22-.717v28.668l.22-.716-20.92 25.622-.22.314v47.482l.22.314 52.32 64.056-.22-.672v99.086l.22.268L1237 838.59l-.22-.671v132.995l.22-.672-42.64 52.188-.23.27v125.91h1.57V1023.1l-.22.67 42.64-52.185.23-.268V837.515l-.23-.268-101.91-124.709.23.672v-99.085l-.23-.314-52.32-64.056.23.717v-46.721l-.23.672 20.92-25.623.23-.268v-29.43l-.23-.314-20.92-25.622.23.671V.842h-1.57z" fill="url(#paint28_linear_2_23)"/><path opacity=".41" d="M1099.75.842v423.399l.27.313 20.92 25.623-.22-.717v28.668l.22-.716-20.92 25.622-.27.314v47.482l.27.314 52.32 64.056-.22-.672v99.086l.22.268 101.91 124.708-.27-.671v132.995l.27-.672-42.65 52.188-.22.27v125.91h1.57V1023.1l-.23.67 42.6-52.185.23-.268V837.515l-.23-.268-101.86-124.709.22.672v-99.085l-.22-.314-52.36-64.056.26.717v-46.721l-.26.672 20.96-25.623.22-.268v-29.43l-.22-.314-20.96-25.622.26.671V.842h-1.61z" fill="url(#paint29_linear_2_23)"/><path opacity=".41" d="M1108.4.842v423.399l.22.313 20.92 25.623-.22-.717v28.668l.22-.716-20.92 25.622-.22.314v47.482l.22.314 52.32 64.056-.22-.672v99.086l.22.268 101.91 124.708-.23-.671v132.995l.23-.672-42.65 52.188-.22.27v125.91h1.57V1023.1l-.23.67 42.65-52.185.22-.268V837.515l-.22-.268-101.91-124.709.22.672v-99.085l-.22-.314-52.32-64.056.22.717v-46.721l-.22.672 20.92-25.623.22-.268v-29.43l-.22-.314-20.92-25.622.22.671V.842h-1.56z" fill="url(#paint30_linear_2_23)"/></g><path opacity=".09" d="M243.425 525.126l-95.143-95.054c4.031-4.613 3.897-11.646-.538-16.081-4.39-4.39-11.467-4.569-16.081-.537L45.12 327 44 328.12l86.543 86.453c-4.031 4.614-3.897 11.647.538 16.082 4.389 4.39 11.467 4.569 16.081.537l95.144 95.054 1.119-1.12zM132.2 429.535a10.194 10.194 0 010-14.424 10.192 10.192 0 0114.424 0 10.192 10.192 0 010 14.424c-3.986 3.987-10.482 3.987-14.424 0z" fill="url(#paint31_linear_2_23)"/><path opacity=".92" d="M1119.01 728.037c-.18.269 37.59-6.136 83.54 2.061 46.23 7.57 78.93 28.086 78.71 27.862.04.135-33.78-17.156-79.29-24.592-45.28-8.063-83-5.062-82.96-5.331z" fill="#fff"/><path opacity=".61" d="M157.227 651.59a70.902 70.902 0 00-14.942 12.579l1.191.975a71.359 71.359 0 0114.13-13.012l-.379-.542zm68.45 24.003c-7.327-5.649-16.332-8.952-25.698-9.258a44.425 44.425 0 0111.153 2.833 44.97 44.97 0 0110.052 5.595l-1.173 1.732a37.767 37.767 0 013.14 2.184l.631-.776a43.813 43.813 0 017.923 8.59l-.56.379a39.757 39.757 0 015.27 9.872c.234.649.469 1.317.668 1.967l.577-.163a44.324 44.324 0 011.263 4.945c2.996 15.178-2.255 30.626-13.21 40.894l.668.812a44.41 44.41 0 0011.062-13.228 46.78 46.78 0 004.656-22.288l.813-.018a44.02 44.02 0 00-.813-7.489 44.489 44.489 0 00-7.651-17.578l-.469.325a47.458 47.458 0 00-8.446-9.15l.144-.18zm3.068 164.226c27.124-7.092 52.226-22.54 71.049-45.695l-27.052-22.378c18.065-22.937 24.399-52.047 19.039-79.298a97.237 97.237 0 00-23.55-46.777l-.722.65a94.954 94.954 0 017.958 9.98l-6.875 4.746a88.037 88.037 0 0114.058 33.206 89.951 89.951 0 011.66 16.278c.216 22.649-8.193 45.334-25.319 62.785a106.562 106.562 0 01-3.23 3.123l4.656 5.251c-29.506 26.8-71.536 32.412-106.276 16.621l-.324.686-.867-.433c-5.684-2.96-10.972-6.371-15.826-10.196a66.947 66.947 0 01-2.87-2.184L111.841 813.2c-23.154-18.805-38.637-43.872-45.73-70.978l-2.039.505a265.39 265.39 0 01-.776-3.663c-3.338-16.965-3.465-34.65-.054-52.066a139.6 139.6 0 013.736-17l-1.931-.577a139.242 139.242 0 0113.606-30.933l-2.02-1.209a144.965 144.965 0 00-3.321 5.541l-15.682-8.555a159.162 159.162 0 00-13.517 34.253l18.605 4.909c-5.341 20.122-5.9 41.039-1.949 61.089 6.443 32.773 24.905 63.236 54.212 84.242 17.992 12.886 38.06 20.754 58.524 23.894 18.696 3.646 37.681 3.249 55.782-.812l-.542-2.021zm-48.815-31.78c-2.238-.452-4.494-.957-6.732-1.57a96.756 96.756 0 0018.318 2.526 99.657 99.657 0 01-11.586-.956zm-8.536-135.929l-13.228-19.166a70.952 70.952 0 00-9.186 7.652 68.77 68.77 0 015.811-4.747l14.076 18.138a43.274 43.274 0 012.527-1.877zm-10.431 102.47l.614-1.137c-13.716-7.399-24.796-19.238-31.167-33.784l2.328-1.029a66.622 66.622 0 01-1.317-3.32 68.57 68.57 0 01-3.05-10.882 75.256 75.256 0 01-.92-5.956l-9.24 1.281a80.124 80.124 0 001.011 6.461 80.961 80.961 0 003.447 12.326 80.856 80.856 0 0012.434 22.216l4.71-3.826a71.57 71.57 0 0021.15 17.65zm6.479-89.747a40.245 40.245 0 017.778-7.165l-2.274-3.284a43.75 43.75 0 00-8.59 7.922l3.086 2.527zM45.123 642.206c5.414-11.803 12.037-22.685 19.653-32.538l-2.22-1.661c-24.2 32.196-36.832 73.054-32.592 116.294a170.92 170.92 0 002.346 16.008 199.266 199.266 0 001.66 7.543 169.193 169.193 0 01-.92-4.367c-6.478-33.026-3.05-68.271 12.073-101.279zm129.88-91.858c31.798-4.693 63.595.288 91.712 13.264 34.107 15.755 62.783 43.258 79.422 79.46l-1.931-9.817a165.15 165.15 0 00-10.485-17.091l-1.516 1.047a165.15 165.15 0 00-30.932-33.567l.921-1.119c-1.841-1.48-3.7-2.905-5.595-4.295l-.144.198a169.37 169.37 0 00-8.698-6.262c-39.305-25.175-88.824-33.459-136.359-19.238l.055.181a165.056 165.056 0 0123.297-4.638l.253 1.877zm-12.759 130.19a46.355 46.355 0 012.834-3.105 51.565 51.565 0 00-3.032 2.942l.198.163zM1 755.811a191.126 191.126 0 002.689 10.521l.18-.054A183.697 183.697 0 011 755.811zM105.525 576.75a162.056 162.056 0 00-33.639 29.651l1.39 1.137A151.083 151.083 0 0176 604.452a161.713 161.713 0 0130.047-26.944l-.523-.758zM58.171 742.655c8.41 34.884 30.047 66.484 63.108 86.715a145.96 145.96 0 007.453 4.259l.524-.974c-27.792-15.773-50.332-41.039-62.242-73.361a141.2 141.2 0 01-6.064-21.584 132.079 132.079 0 01-1.57-9.817l-3.88.541a146.46 146.46 0 001.39 8.428c.397 1.931.812 3.862 1.28 5.793zm36.742 93.14c-30.895-24.346-50.8-58.382-58.019-95.017a157.694 157.694 0 01-1.588-9.565l-.523.072a160.483 160.483 0 001.804 11.207 167.48 167.48 0 007.129 25.374c14.058 38.169 40.785 68.019 73.647 86.571l1.263-2.31c-8.337-4.728-16.296-10.178-23.713-16.332zm8.699-261.824l-2.22-3.212a168.083 168.083 0 00-34.36 31.563l-.054.055 2.887 2.364a156.927 156.927 0 016.623-7.273 163.671 163.671 0 0127.124-23.497zm122.571 201.583a70.45 70.45 0 0017.577-11.026 71.946 71.946 0 0016.458-22.577c6.154-13.355 8.229-28.55 5.27-43.619a76.44 76.44 0 00-1.841-7.327l1.714-.506a70.13 70.13 0 00-10.015-20.302l-1.372.956a70.322 70.322 0 00-13.03-14.112l.867-1.065c-12.651-10.052-28.748-15.791-45.982-15.268l.342 23.281c11.568-.452 22.324 3.302 30.86 9.98l13.282-16.152a69.933 69.933 0 0112.849 13.914l-16.982 11.712a46.704 46.704 0 018.067 18.498c.325 1.697.577 3.429.722 5.198.072.848.126 1.696.144 2.544l20.302-.307c.867 28.298-15.249 53.563-39.539 65.42l.307.758zm-93.517-3.104a89.002 89.002 0 0021.096 15.34l.253-.469c-17.18-9.98-31.094-25.771-38.493-45.857a87.216 87.216 0 01-3.808-13.571 85.802 85.802 0 01-1.1-7.075l-3.682.505c.235 1.715.524 3.429.848 5.126 3.357 16.91 11.64 33.007 24.886 46.001zm-35.731-67.441a98.195 98.195 0 012.544-18.281 97.492 97.492 0 00-1.57 6.713 104.512 104.512 0 00-.975 11.568zm56.358 14.817a45.709 45.709 0 001.011 4.114l3.772-1.335a39.36 39.36 0 01-.867-3.555 40.173 40.173 0 012.112-22.667 40.689 40.689 0 015.197-9.276l-3.32-2.238a44.82 44.82 0 00-5.595 10.034c-3.266 8.247-3.898 16.856-2.31 24.923zm180.049 75.508c19.634-32.052 26.672-68.272 22.504-102.886l-4.584-23.352c-9.601-34.975-30.986-66.774-62.639-88.917l-11.838 16.603c29 20.231 48.147 49.701 55.925 81.987a157.05 157.05 0 011.264 5.775c6.532 33.278 1.1 68.921-18.011 100.124a154.39 154.39 0 01-4.565 6.984l14.581 10.377c-37.554 53.581-102.882 77.764-164.294 64.951l-.271 1.173c65.129 14.563 135.113-12.759 171.928-72.819zM147.518 637.55a87.863 87.863 0 00-18.497 15.737l1.426 1.173a88.297 88.297 0 0117.577-16.17l-.506-.74zm38.259 33.477l.361 1.227a39.691 39.691 0 0113.498-1.913c-4.692-.614-9.366-.343-13.859.686zm63.559 102.344c22.901-18.535 34.234-48.601 28.423-78.143a80.752 80.752 0 00-3.483-12.417c-14.888-40.406-58.705-61.756-99.417-49.285l.108.378a82.058 82.058 0 0111.279-2.093l1.155 8.338c14.22-2.238 28.459-.073 41.037 5.739a72.837 72.837 0 0114.401 8.825l4.007-4.873a79.727 79.727 0 0114.78 16.025l-4.927 3.393a71.818 71.818 0 018.843 16.784 81.219 81.219 0 011.353 4.024l5.703-1.66a77.716 77.716 0 012.039 8.139c5.594 28.46-4.71 57.407-25.915 76.05l.614.776zm-70.254-78.992a26.12 26.12 0 014.692-4.331l-.307-.433a24.717 24.717 0 00-5.45 3.898l1.065.866zm13.607 61.919c-12.38-.758-24.038-6.695-31.888-16.422l1.299-1.065a45.824 45.824 0 01-1.408-1.859l-3.501 2.725a47.065 47.065 0 007.363 7.796c9.041 7.616 20.79 11.839 33.422 11.027l-.036-1.787a45.982 45.982 0 01-5.251-.415zm-10.738-59.572a21.01 21.01 0 013.934-3.646l-.289-.415a15.52 15.52 0 00-.938.505 23.055 23.055 0 00-3.23 3.122l.523.434zm31.599-6.389l5.107-6.208a36.732 36.732 0 016.407 6.948l-6.335 4.367a25.434 25.434 0 013.556 6.497c.126.325.234.668.342.993l7.309-2.112c.451 1.408.83 2.816 1.101 4.241 2.4 12.236-1.714 24.67-10.413 33.062l.686.83c10.359-8.337 15.484-21.909 12.867-35.245a34.744 34.744 0 00-1.57-5.577c-6.767-18.371-26.835-27.99-45.314-21.999l.126.415a38.811 38.811 0 014.927-.758l1.371 10.016c7.074-1.353 14.257.415 19.833 4.53zm5.27 12.885a22.02 22.02 0 01.92 3.303c1.57 7.977-1.516 16.098-7.724 21.079l.415.523a22.356 22.356 0 008.211-14.744 25.137 25.137 0 00-.433-6.244 25.8 25.8 0 00-.866-3.231l.361-.108c-.09-.271-.181-.523-.271-.776a22.481 22.481 0 00-3.194-5.829l-.235.162a26.264 26.264 0 00-3.771-4.205c-5.775-4.493-13.643-6.063-21.042-3.519l.126.451c.451-.09.902-.144 1.353-.198 10.774-3.032 22.179 2.671 26.15 13.336zm-54.464 20.014a36.081 36.081 0 005.215 9.493l6.01-4.891a25.393 25.393 0 007.471 6.281l1.317-2.419a23.55 23.55 0 01-2.743-2.111 22.284 22.284 0 01-3.717-3.664l.198-.162a25.501 25.501 0 01-3.447-6.334 24.762 24.762 0 01-1.065-3.826 27.805 27.805 0 01-.433-3.411l-10.918 1.498c.109 1.335.289 2.671.56 4.006.379 1.859.884 3.7 1.552 5.54zm12.867-8.373a19.246 19.246 0 01-.379-3.177l-.668.091c.054 1.046.181 2.111.379 3.176.235 1.155.541 2.31.975 3.447a22.237 22.237 0 008.301 10.666l.325-.596c-3.537-2.436-6.389-5.974-8.013-10.305a22.493 22.493 0 01-.92-3.302z" fill="url(#paint32_linear_2_23)"/></g><defs><linearGradient id="paint0_linear_2_23" x1="663.117" y1="911.96" x2="663.117" y2="623.756" gradientUnits="userSpaceOnUse"><stop stop-color="#fff"/><stop offset=".525" stop-color="#57B536"/><stop offset="1" stop-color="#fff"/></linearGradient><linearGradient id="paint1_linear_2_23" x1="660.654" y1="907.033" x2="660.654" y2="618.828" gradientUnits="userSpaceOnUse"><stop stop-color="#fff"/><stop offset=".525" stop-color="#57B536"/><stop offset="1" stop-color="#fff"/></linearGradient><linearGradient id="paint2_linear_2_23" x1="658.19" y1="902.106" x2="658.19" y2="613.901" gradientUnits="userSpaceOnUse"><stop stop-color="#fff"/><stop offset=".525" stop-color="#57B536"/><stop offset="1" stop-color="#fff"/></linearGradient><linearGradient id="paint3_linear_2_23" x1="655.726" y1="703.576" x2="655.726" y2="415.371" gradientUnits="userSpaceOnUse"><stop stop-color="#fff"/><stop offset=".525" stop-color="#57B536"/><stop offset="1" stop-color="#fff"/></linearGradient><linearGradient id="paint4_linear_2_23" x1="663.117" y1="569.416" x2="663.117" y2="281.212" gradientUnits="userSpaceOnUse"><stop stop-color="#fff"/><stop offset=".525" stop-color="#57B536"/><stop offset="1" stop-color="#fff"/></linearGradient><linearGradient id="paint5_linear_2_23" x1="658.235" y1="594.053" x2="658.235" y2="305.849" gradientUnits="userSpaceOnUse"><stop stop-color="#fff"/><stop offset=".525" stop-color="#57B536"/><stop offset="1" stop-color="#fff"/></linearGradient><linearGradient id="paint6_linear_2_23" x1="660.9" y1="589.125" x2="660.9" y2="300.921" gradientUnits="userSpaceOnUse"><stop stop-color="#fff"/><stop offset=".525" stop-color="#57B536"/><stop offset="1" stop-color="#fff"/></linearGradient><linearGradient id="paint7_linear_2_23" x1="663.117" y1="584.198" x2="663.117" y2="295.994" gradientUnits="userSpaceOnUse"><stop stop-color="#fff"/><stop offset=".525" stop-color="#57B536"/><stop offset="1" stop-color="#fff"/></linearGradient><linearGradient id="paint8_linear_2_23" x1="663.117" y1="653.092" x2="663.117" y2="364.888" gradientUnits="userSpaceOnUse"><stop stop-color="#fff"/><stop offset=".525" stop-color="#57B536"/><stop offset="1" stop-color="#fff"/></linearGradient><linearGradient id="paint9_linear_2_23" x1="835" y1="385.204" x2="370" y2="385.204" gradientUnits="userSpaceOnUse"><stop stop-color="#fff"/><stop offset=".525" stop-color="#57B536"/><stop offset="1" stop-color="#fff"/></linearGradient><linearGradient id="paint10_linear_2_23" x1="458.398" y1="1148.6" x2="458.398" y2=".842" gradientUnits="userSpaceOnUse"><stop stop-color="#fff"/><stop offset=".525" stop-color="#57B536"/><stop offset="1" stop-color="#fff"/></linearGradient><linearGradient id="paint11_linear_2_23" x1="862.892" y1="1148.6" x2="862.892" y2=".842" gradientUnits="userSpaceOnUse"><stop stop-color="#fff"/><stop offset=".525" stop-color="#57B536"/><stop offset="1" stop-color="#fff"/></linearGradient><linearGradient id="paint12_linear_2_23" x1="850.573" y1="1148.6" x2="850.573" y2=".842" gradientUnits="userSpaceOnUse"><stop stop-color="#fff"/><stop offset=".525" stop-color="#57B536"/><stop offset="1" stop-color="#fff"/></linearGradient><linearGradient id="paint13_linear_2_23" x1="838.277" y1="1148.6" x2="838.277" y2=".842" gradientUnits="userSpaceOnUse"><stop stop-color="#fff"/><stop offset=".525" stop-color="#57B536"/><stop offset="1" stop-color="#fff"/></linearGradient><linearGradient id="paint14_linear_2_23" x1="1041.53" y1="1148.6" x2="1041.53" y2=".842" gradientUnits="userSpaceOnUse"><stop stop-color="#fff"/><stop offset=".525" stop-color="#57B536"/><stop offset="1" stop-color="#fff"/></linearGradient><linearGradient id="paint15_linear_2_23" x1="1029.21" y1="1148.6" x2="1029.21" y2=".842" gradientUnits="userSpaceOnUse"><stop stop-color="#fff"/><stop offset=".525" stop-color="#57B536"/><stop offset="1" stop-color="#fff"/></linearGradient><linearGradient id="paint16_linear_2_23" x1="1016.92" y1="1148.6" x2="1016.92" y2=".842" gradientUnits="userSpaceOnUse"><stop stop-color="#fff"/><stop offset=".525" stop-color="#57B536"/><stop offset="1" stop-color="#fff"/></linearGradient><linearGradient id="paint17_linear_2_23" x1="352.727" y1="1162.31" x2="352.727" y2="14.549" gradientUnits="userSpaceOnUse"><stop stop-color="#fff"/><stop offset=".525" stop-color="#57B536"/><stop offset="1" stop-color="#fff"/></linearGradient><linearGradient id="paint18_linear_2_23" x1="340.408" y1="1162.31" x2="340.408" y2="14.549" gradientUnits="userSpaceOnUse"><stop stop-color="#fff"/><stop offset=".525" stop-color="#57B536"/><stop offset="1" stop-color="#fff"/></linearGradient><linearGradient id="paint19_linear_2_23" x1="328.09" y1="1162.31" x2="328.09" y2="14.549" gradientUnits="userSpaceOnUse"><stop stop-color="#fff"/><stop offset=".525" stop-color="#57B536"/><stop offset="1" stop-color="#fff"/></linearGradient><linearGradient id="paint20_linear_2_23" x1="610.475" y1="1148.6" x2="610.475" y2=".842" gradientUnits="userSpaceOnUse"><stop stop-color="#fff"/><stop offset=".525" stop-color="#57B536"/><stop offset="1" stop-color="#fff"/></linearGradient><linearGradient id="paint21_linear_2_23" x1="622.794" y1="1148.6" x2="622.794" y2=".842" gradientUnits="userSpaceOnUse"><stop stop-color="#fff"/><stop offset=".525" stop-color="#57B536"/><stop offset="1" stop-color="#fff"/></linearGradient><linearGradient id="paint22_linear_2_23" x1="635.112" y1="1148.6" x2="635.112" y2=".842" gradientUnits="userSpaceOnUse"><stop stop-color="#fff"/><stop offset=".525" stop-color="#57B536"/><stop offset="1" stop-color="#fff"/></linearGradient><linearGradient id="paint23_linear_2_23" x1="354.188" y1="1148.6" x2="354.188" y2=".842" gradientUnits="userSpaceOnUse"><stop stop-color="#fff"/><stop offset=".525" stop-color="#57B536"/><stop offset="1" stop-color="#fff"/></linearGradient><linearGradient id="paint24_linear_2_23" x1="345.588" y1="1148.6" x2="345.588" y2=".842" gradientUnits="userSpaceOnUse"><stop stop-color="#fff"/><stop offset=".525" stop-color="#57B536"/><stop offset="1" stop-color="#fff"/></linearGradient><linearGradient id="paint25_linear_2_23" x1="371.435" y1="1148.6" x2="371.435" y2=".842" gradientUnits="userSpaceOnUse"><stop stop-color="#fff"/><stop offset=".525" stop-color="#57B536"/><stop offset="1" stop-color="#fff"/></linearGradient><linearGradient id="paint26_linear_2_23" x1="380.08" y1="1148.6" x2="380.08" y2=".842" gradientUnits="userSpaceOnUse"><stop stop-color="#fff"/><stop offset=".525" stop-color="#57B536"/><stop offset="1" stop-color="#fff"/></linearGradient><linearGradient id="paint27_linear_2_23" x1="1151.8" y1="1148.6" x2="1151.8" y2=".842" gradientUnits="userSpaceOnUse"><stop stop-color="#fff"/><stop offset=".525" stop-color="#57B536"/><stop offset="1" stop-color="#fff"/></linearGradient><linearGradient id="paint28_linear_2_23" x1="1160.45" y1="1148.6" x2="1160.45" y2=".842" gradientUnits="userSpaceOnUse"><stop stop-color="#fff"/><stop offset=".525" stop-color="#57B536"/><stop offset="1" stop-color="#fff"/></linearGradient><linearGradient id="paint29_linear_2_23" x1="1177.65" y1="1148.6" x2="1177.65" y2=".842" gradientUnits="userSpaceOnUse"><stop stop-color="#fff"/><stop offset=".525" stop-color="#57B536"/><stop offset="1" stop-color="#fff"/></linearGradient><linearGradient id="paint30_linear_2_23" x1="1186.29" y1="1148.6" x2="1186.29" y2=".842" gradientUnits="userSpaceOnUse"><stop stop-color="#fff"/><stop offset=".525" stop-color="#57B536"/><stop offset="1" stop-color="#fff"/></linearGradient><linearGradient id="paint31_linear_2_23" x1="143.709" y1="526.244" x2="143.709" y2="327" gradientUnits="userSpaceOnUse"><stop stop-color="#fff"/><stop offset=".525" stop-color="#57B536"/><stop offset="1" stop-color="#fff"/></linearGradient><linearGradient id="paint32_linear_2_23" x1="1" y1="709" x2="357" y2="632.5" gradientUnits="userSpaceOnUse"><stop stop-color="#D8F4CF"/><stop offset="1" stop-color="#F4FAF6"/></linearGradient><clipPath id="clip0_2_23"><path fill="#fff" transform="rotate(-90 521.66 640.66)" d="M0 0h1161.48v1445.28H0z"/></clipPath></defs></svg>