<svg width="1327" height="847" viewBox="0 0 1327 847" fill="none" xmlns="http://www.w3.org/2000/svg">
<g clip-path="url(#clip0_2_23)">
<g opacity="0.26">
<path opacity="0.41" d="M1326.28 623.756L958.021 623.756L957.708 623.756L957.484 623.98L706.276 874.964L706.814 874.74L591.064 874.74L590.751 874.74L590.527 874.964L554.826 910.62L555.363 910.396L6.09666e-05 910.396L6.10352e-05 911.964L555.363 911.964L555.721 911.964L555.945 911.74L591.647 876.084L591.064 876.308L706.814 876.308L707.172 876.308L707.396 876.084L958.559 625.1L958.021 625.324L1326.28 625.324L1326.28 623.756Z" fill="url(#paint0_linear_2_23)"/>
<path opacity="0.6" d="M1321.35 618.829L953.094 618.829L952.781 618.829L952.557 619.053L701.349 870.036L701.886 869.812L586.182 869.812L585.823 869.812L585.6 870.036L549.898 905.693L550.436 905.469L6.09666e-05 905.469L6.10352e-05 907.037L550.436 907.037L550.794 907.037L551.018 906.813L586.719 871.156L586.182 871.38L701.886 871.38L702.245 871.38L702.469 871.156L953.676 620.172L953.094 620.396L1321.35 620.396L1321.35 618.829Z" fill="url(#paint1_linear_2_23)"/>
<path opacity="0.6" d="M1316.42 613.901L948.167 613.901L947.853 613.901L947.629 614.125L696.421 865.109L696.959 864.885L581.254 864.885L580.896 864.885L580.672 865.109L544.971 900.766L545.508 900.542L6.09666e-05 900.542L6.10352e-05 902.11L545.508 902.11L545.867 902.11L546.091 901.886L581.792 866.229L581.254 866.453L696.959 866.453L697.317 866.453L697.541 866.229L948.749 615.245L948.167 615.514L1316.42 615.514L1316.42 613.901Z" fill="url(#paint2_linear_2_23)"/>
</g>
<g opacity="0.6">
<path opacity="0.41" d="M1311.5 415.371L943.239 415.371L942.926 415.371L942.702 415.595L691.494 666.535L692.031 666.311L576.327 666.311L575.969 666.311L575.745 666.535L540.043 702.236L540.581 702.012L6.09666e-05 702.012L6.10352e-05 703.58L540.581 703.58L540.939 703.58L541.163 703.356L576.865 667.654L576.327 667.878L692.031 667.878L692.39 667.878L692.614 667.654L943.822 416.715L943.239 416.939L1311.5 416.939L1311.5 415.371Z" fill="url(#paint3_linear_2_23)"/>
</g>
<path opacity="0.13" d="M1326.28 281.212L958.021 281.212L957.708 281.212L957.484 281.481L706.276 532.42L706.814 532.196L591.064 532.196L590.751 532.196L590.527 532.42L554.826 568.076L555.363 567.852L6.09666e-05 567.852L6.10352e-05 569.42L555.363 569.42L555.721 569.42L555.945 569.196L591.647 533.54L591.064 533.764L706.814 533.764L707.172 533.764L707.396 533.54L958.559 282.556L958.021 282.78L1326.28 282.78L1326.28 281.212Z" fill="url(#paint4_linear_2_23)"/>
<g opacity="0.18">
<path opacity="0.41" d="M0.0897092 307.417L358.402 307.417L357.819 307.193L609.027 558.132L609.251 558.356L609.565 558.356L725.314 558.356L724.776 558.132L760.478 593.833L760.702 594.057L761.06 594.057L1316.42 594.057L1316.42 592.489L761.06 592.489L761.597 592.713L725.896 557.012L725.672 556.788L725.314 556.788L609.565 556.788L610.147 557.012L358.939 306.073L358.715 305.849L358.402 305.849L0.0897091 305.849L0.0897092 307.417Z" fill="url(#paint5_linear_2_23)"/>
<path opacity="0.41" d="M0.493274 302.489L363.329 302.489L362.747 302.265L613.955 553.204L614.179 553.428L614.492 553.428L730.242 553.428L729.704 553.204L765.405 588.905L765.629 589.129L765.943 589.129L1321.35 589.129L1321.35 587.561L765.943 587.561L766.525 587.785L730.824 552.084L730.6 551.86L730.242 551.86L614.492 551.86L615.075 552.084L363.867 301.145L363.643 300.921L363.329 300.921L0.493274 300.921L0.493274 302.489Z" fill="url(#paint6_linear_2_23)"/>
<path opacity="0.41" d="M4.85057e-05 297.562L368.256 297.562L367.674 297.338L618.882 548.277L619.106 548.545L619.419 548.545L735.169 548.545L734.631 548.277L770.332 583.978L770.556 584.202L770.87 584.202L1326.28 584.202L1326.28 582.634L770.87 582.634L771.452 582.858L735.751 547.202L735.527 546.933L735.169 546.933L619.419 546.933L620.002 547.202L368.794 296.218L368.57 295.994L368.256 295.994L4.84372e-05 295.994L4.85057e-05 297.562Z" fill="url(#paint7_linear_2_23)"/>
</g>
<g opacity="0.6">
<path opacity="0.16" d="M4.85057e-05 366.456L368.256 366.456L367.674 366.232L618.882 617.216L619.106 617.44L619.419 617.44L735.169 617.44L734.631 617.216L770.332 652.872L770.556 653.096L770.87 653.096L1326.28 653.096L1326.28 651.528L770.87 651.528L771.452 651.752L735.751 616.096L735.527 615.872L735.169 615.872L619.419 615.872L620.002 616.096L368.794 365.112L368.57 364.888L368.256 364.888L4.84372e-05 364.888L4.85057e-05 366.456Z" fill="url(#paint8_linear_2_23)"/>
</g>
<g opacity="0.6">
<path opacity="0.2" d="M-119 98.5678L249.256 98.5678L248.674 98.3438L499.882 349.283L500.106 349.507L500.419 349.507L616.168 349.507L615.631 349.283L651.332 384.984L651.556 385.208L651.87 385.208L1207.28 385.208L1207.28 383.64L651.87 383.64L652.452 383.864L616.751 348.163L616.527 347.939L616.168 347.939L500.419 347.939L501.002 348.163L249.794 97.224L249.57 97.0001L249.256 97.0001L-119 97.0001L-119 98.5678Z" fill="url(#paint9_linear_2_23)"/>
</g>
<g opacity="0.77">
<path opacity="0.15" d="M704.53 1148.61L704.53 862.735L704.53 862.332L704.306 862.018L575.656 704.565L575.88 705.237L575.88 620.082L575.88 619.679L575.611 619.366L213.581 217.738L213.85 218.454L213.85 0.842234L212.282 0.842234L212.282 218.454L212.282 218.857L212.551 219.171L574.536 620.799L574.312 620.082L574.312 705.237L574.312 705.64L574.536 705.909L703.186 863.407L702.962 862.735L702.962 1148.61L704.53 1148.61Z" fill="url(#paint10_linear_2_23)"/>
</g>
<g opacity="0.2">
<path opacity="0.41" d="M1109.02 1148.61L1109.02 862.735L1109.02 862.332L1108.8 862.018L980.15 704.565L980.374 705.237L980.374 620.082L980.374 619.679L980.105 619.366L618.12 217.738L618.344 218.454L618.344 0.842234L616.776 0.842234L616.776 218.454L616.776 218.857L617.045 219.171L979.03 620.799L978.806 620.082L978.806 705.237L978.806 705.64L979.03 705.909L1107.68 863.407L1107.46 862.735L1107.46 1148.61L1109.02 1148.61Z" fill="url(#paint11_linear_2_23)"/>
<path opacity="0.41" d="M1096.71 1148.61L1096.71 862.735L1096.71 862.332L1096.48 862.018L967.831 704.565L968.055 705.237L968.055 620.082L968.055 619.679L967.786 619.366L605.801 217.738L606.025 218.454L606.025 0.842234L604.458 0.842234L604.458 218.454L604.458 218.857L604.726 219.171L966.711 620.799L966.487 620.082L966.487 705.237L966.487 705.64L966.711 705.909L1095.36 863.407L1095.14 862.735L1095.14 1148.61L1096.71 1148.61Z" fill="url(#paint12_linear_2_23)"/>
<path opacity="0.41" d="M1084.43 1148.61L1084.43 862.735L1084.43 862.332L1084.16 862.018L955.513 704.565L955.737 705.237L955.737 620.082L955.737 619.679L955.468 619.366L593.483 217.738L593.752 218.454L593.752 0.842234L592.139 0.842234L592.139 218.454L592.139 218.857L592.408 219.171L954.437 620.799L954.169 620.082L954.169 705.237L954.169 705.64L954.393 705.909L1083.09 863.407L1082.82 862.735L1082.82 1148.61L1084.43 1148.61Z" fill="url(#paint13_linear_2_23)"/>
</g>
<g opacity="0.17">
<path opacity="0.41" d="M1286.1 0.842213L1286.1 286.721L1286.32 286.049L1157.67 443.547L1157.45 443.816L1157.45 444.219L1157.45 529.373L1157.67 528.657L795.686 930.285L795.417 930.554L795.417 931.002L795.417 1148.61L796.985 1148.61L796.985 931.002L796.761 931.718L1158.75 530.09L1159.01 529.777L1159.01 529.373L1159.01 444.219L1158.79 444.891L1287.44 287.393L1287.66 287.124L1287.66 286.721L1287.66 0.842213L1286.1 0.842213Z" fill="url(#paint14_linear_2_23)"/>
<path d="M1273.78 0.842213L1273.78 286.721L1274 286.049L1145.35 443.547L1145.13 443.816L1145.13 444.219L1145.13 529.373L1145.4 528.657L783.368 930.285L783.099 930.554L783.099 931.002L783.099 1148.61L784.712 1148.61L784.712 931.002L784.443 931.718L1146.43 530.09L1146.7 529.777L1146.7 529.373L1146.7 444.219L1146.47 444.891L1275.12 287.393L1275.35 287.124L1275.35 286.721L1275.35 0.842213L1273.78 0.842213Z" fill="url(#paint15_linear_2_23)"/>
<path opacity="0.41" d="M1261.46 0.842213L1261.46 286.721L1261.73 286.049L1133.03 443.547L1132.81 443.816L1132.81 444.219L1132.81 529.373L1133.08 528.657L771.049 930.285L770.78 930.554L770.78 931.002L770.78 1148.61L772.393 1148.61L772.393 931.002L772.124 931.718L1134.11 530.09L1134.38 529.777L1134.38 529.373L1134.38 444.219L1134.15 444.891L1262.8 287.393L1263.07 287.124L1263.07 286.721L1263.07 0.842213L1261.46 0.842213Z" fill="url(#paint16_linear_2_23)"/>
</g>
<g opacity="0.13">
<path opacity="0.41" d="M597.291 1162.32L597.291 876.442L597.515 877.114L468.82 719.616L468.596 719.347L468.596 718.944L468.596 633.79L468.865 634.507L106.835 232.878L106.611 232.565L106.611 232.162L106.611 14.5496L108.179 14.5496L108.179 232.162L107.91 231.445L469.895 633.073L470.164 633.387L470.164 633.79L470.164 718.944L469.94 718.272L598.635 875.725L598.859 876.039L598.859 876.442L598.859 1162.32L597.291 1162.32Z" fill="url(#paint17_linear_2_23)"/>
<path d="M584.972 1162.32L584.972 876.442L585.196 877.114L456.502 719.616L456.278 719.347L456.278 718.944L456.278 633.79L456.546 634.507L94.5615 232.878L94.2927 232.565L94.2927 232.162L94.2927 14.5496L95.8605 14.5496L95.8606 232.162L95.5918 231.445L457.622 633.073L457.846 633.387L457.846 633.79L457.846 718.944L457.622 718.272L586.316 875.725L586.54 876.039L586.54 876.442L586.54 1162.32L584.972 1162.32Z" fill="url(#paint18_linear_2_23)"/>
<path opacity="0.41" d="M572.654 1162.32L572.654 876.442L572.878 877.114L444.183 719.616L443.959 719.347L443.959 718.944L443.959 633.79L444.228 634.507L82.243 232.878L81.9742 232.565L81.9742 232.162L81.9742 14.5496L83.542 14.5496L83.542 232.162L83.2733 231.445L445.303 633.073L445.572 633.387L445.572 633.79L445.572 718.944L445.303 718.272L573.998 875.725L574.222 876.039L574.222 876.442L574.222 1162.32L572.654 1162.32Z" fill="url(#paint19_linear_2_23)"/>
</g>
<g opacity="0.09">
<path d="M365.927 1148.61L365.927 862.735L365.703 863.407L494.398 705.909L494.622 705.64L494.622 705.237L494.622 620.082L494.353 620.799L856.338 219.171L856.607 218.857L856.607 218.454L856.607 0.842213L855.039 0.842213L855.039 218.454L855.308 217.738L493.278 619.366L493.054 619.679L493.054 620.082L493.054 705.237L493.278 704.565L364.584 862.018L364.36 862.332L364.36 862.735L364.36 1148.61L365.927 1148.61Z" fill="url(#paint20_linear_2_23)"/>
<path opacity="0.41" d="M378.246 1148.61L378.246 862.735L378.022 863.407L506.672 705.909L506.941 705.64L506.941 705.237L506.941 620.082L506.672 620.799L868.657 219.171L868.926 218.857L868.926 218.454L868.926 0.842213L867.358 0.842213L867.358 218.454L867.627 217.738L505.597 619.366L505.328 619.679L505.328 620.082L505.328 705.237L505.597 704.565L376.902 862.018L376.678 862.332L376.678 862.735L376.678 1148.61L378.246 1148.61Z" fill="url(#paint21_linear_2_23)"/>
<path opacity="0.77" d="M390.564 1148.61L390.564 862.735L390.34 863.407L518.99 705.909L519.214 705.64L519.214 705.237L519.214 620.082L518.99 620.799L880.975 219.171L881.244 218.857L881.244 218.454L881.244 0.842213L879.676 0.842213L879.676 218.454L879.9 217.738L517.915 619.366L517.647 619.679L517.647 620.082L517.647 705.237L517.871 704.565L389.221 862.018L388.997 862.332L388.997 862.735L388.997 1148.61L390.564 1148.61Z" fill="url(#paint22_linear_2_23)"/>
</g>
<g opacity="0.14">
<path opacity="0.41" d="M277.861 1148.61L277.861 725.574L277.637 726.246L298.601 700.623L298.825 700.354L298.825 699.951L298.825 671.327L298.825 670.924L298.601 670.656L277.637 645.033L277.861 645.705L277.861 598.984L277.637 599.656L330.002 535.645L330.226 535.331L330.226 534.928L330.226 436.246L330.002 436.918L431.865 312.209L432.089 311.941L432.089 311.537L432.089 178.542L432.089 178.139L431.865 177.826L389.22 125.685L389.489 126.357L389.489 0.842229L387.876 0.842229L387.876 126.357L387.876 126.76L388.145 127.029L430.745 179.214L430.521 178.542L430.521 311.537L430.745 310.821L328.882 435.529L328.658 435.842L328.658 436.246L328.658 534.928L328.882 534.256L276.517 598.312L276.293 598.581L276.293 598.984L276.293 645.705L276.293 646.108L276.517 646.377L297.481 671.999L297.257 671.327L297.257 699.951L297.481 699.279L276.517 724.902L276.293 725.171L276.293 725.574L276.293 1148.61L277.861 1148.61Z" fill="url(#paint23_linear_2_23)"/>
<path opacity="0.41" d="M269.261 1148.61L269.261 725.574L269.037 726.246L289.956 700.623L290.18 700.354L290.18 699.951L290.18 671.327L290.18 670.924L289.956 670.656L269.037 645.033L269.261 645.705L269.261 598.984L269.037 599.656L321.357 535.645L321.581 535.331L321.581 534.928L321.581 436.246L321.357 436.918L423.264 312.209L423.488 311.941L423.488 311.537L423.488 178.542L423.488 178.139L423.264 177.826L380.62 125.685L380.844 126.357L380.844 0.842229L379.276 0.842229L379.276 126.357L379.276 126.76L379.5 127.029L422.145 179.214L421.921 178.542L421.921 311.537L422.145 310.821L320.237 435.529L320.013 435.842L320.013 436.246L320.013 534.928L320.237 534.256L267.917 598.312L267.693 598.581L267.693 598.984L267.693 645.705L267.693 646.108L267.917 646.377L288.836 671.999L288.612 671.327L288.612 699.951L288.836 699.279L267.917 724.902L267.693 725.171L267.693 725.574L267.693 1148.61L269.261 1148.61Z" fill="url(#paint24_linear_2_23)"/>
<path opacity="0.77" d="M295.107 1148.61L295.107 725.574L294.883 726.246L315.802 700.623L316.071 700.354L316.071 699.951L316.071 671.327L316.071 670.924L315.802 670.656L294.883 645.033L295.107 645.705L295.107 598.984L294.883 599.656L347.203 535.645L347.472 535.331L347.472 534.928L347.472 436.246L347.203 436.918L449.111 312.209L449.335 311.941L449.335 311.537L449.335 178.542L449.335 178.139L449.111 177.826L406.467 125.685L406.69 126.357L406.69 0.842229L405.123 0.842229L405.123 126.357L405.123 126.76L405.347 127.029L447.991 179.214L447.767 178.542L447.767 311.537L447.991 310.821L346.083 435.529L345.859 435.842L345.859 436.246L345.859 534.928L346.083 534.256L293.763 598.312L293.539 598.581L293.539 598.984L293.539 645.705L293.539 646.108L293.763 646.377L314.727 671.999L314.458 671.327L314.458 699.951L314.727 699.279L293.763 724.902L293.539 725.171L293.539 725.574L293.539 1148.61L295.107 1148.61Z" fill="url(#paint25_linear_2_23)"/>
<path opacity="0.41" d="M303.752 1148.61L303.752 725.574L303.484 726.246L324.447 700.623L324.671 700.354L324.671 699.951L324.671 671.327L324.671 670.924L324.447 670.656L303.484 645.033L303.752 645.705L303.752 598.984L303.484 599.656L355.848 535.645L356.072 535.331L356.072 534.928L356.072 436.246L355.848 436.918L457.711 312.209L457.98 311.941L457.98 311.537L457.98 178.542L457.98 178.139L457.711 177.826L415.112 125.685L415.336 126.357L415.336 0.842229L413.768 0.842229L413.768 126.357L413.768 126.76L413.992 127.029L456.636 179.214L456.367 178.542L456.367 311.537L456.636 310.821L354.728 435.529L354.505 435.842L354.505 436.246L354.505 534.928L354.729 534.256L302.408 598.312L302.184 598.581L302.184 598.984L302.184 645.705L302.184 646.108L302.408 646.377L323.328 671.999L323.104 671.327L323.104 699.951L323.328 699.279L302.408 724.902L302.184 725.171L302.184 725.574L302.184 1148.61L303.752 1148.61Z" fill="url(#paint26_linear_2_23)"/>
</g>
<g opacity="0.08">
<path opacity="0.77" d="M1073.9 0.842234L1073.9 423.837L1073.9 424.241L1074.13 424.554L1095.09 450.177L1094.82 449.46L1094.82 478.128L1095.09 477.412L1074.13 503.034L1073.9 503.348L1073.9 503.751L1073.9 550.472L1073.9 550.83L1074.13 551.144L1126.49 615.2L1126.27 614.528L1126.27 713.21L1126.27 713.614L1126.49 713.882L1228.36 838.59L1228.13 837.919L1228.13 970.914L1228.36 970.242L1185.71 1022.43L1185.49 1022.7L1185.49 1023.1L1185.49 1148.61L1187.1 1148.61L1187.1 1023.1L1186.83 1023.77L1229.48 971.585L1229.7 971.317L1229.7 970.914L1229.7 837.919L1229.7 837.515L1229.48 837.247L1127.57 712.538L1127.84 713.21L1127.84 614.528L1127.84 614.125L1127.57 613.811L1075.25 549.755L1075.47 550.472L1075.47 503.751L1075.25 504.423L1096.21 478.8L1096.44 478.532L1096.44 478.128L1096.44 449.46L1096.44 449.102L1096.21 448.788L1075.25 423.166L1075.47 423.837L1075.47 0.842234L1073.9 0.842234Z" fill="url(#paint27_linear_2_23)"/>
<path d="M1082.55 0.842234L1082.55 423.837L1082.55 424.241L1082.77 424.554L1103.69 450.177L1103.47 449.46L1103.47 478.128L1103.69 477.412L1082.77 503.034L1082.55 503.348L1082.55 503.751L1082.55 550.472L1082.55 550.83L1082.77 551.144L1135.09 615.2L1134.87 614.528L1134.87 713.21L1134.87 713.614L1135.09 713.882L1237 838.59L1236.78 837.919L1236.78 970.914L1237 970.242L1194.36 1022.43L1194.13 1022.7L1194.13 1023.1L1194.13 1148.61L1195.7 1148.61L1195.7 1023.1L1195.48 1023.77L1238.12 971.585L1238.35 971.317L1238.35 970.914L1238.35 837.919L1238.35 837.515L1238.12 837.247L1136.21 712.538L1136.44 713.21L1136.44 614.528L1136.44 614.125L1136.21 613.811L1083.89 549.755L1084.12 550.472L1084.12 503.751L1083.89 504.423L1104.81 478.8L1105.04 478.532L1105.04 478.128L1105.04 449.46L1105.04 449.102L1104.81 448.788L1083.89 423.166L1084.12 423.837L1084.12 0.842234L1082.55 0.842234Z" fill="url(#paint28_linear_2_23)"/>
<path opacity="0.41" d="M1099.75 0.842234L1099.75 423.837L1099.75 424.241L1100.02 424.554L1120.94 450.177L1120.72 449.46L1120.72 478.128L1120.94 477.412L1100.02 503.034L1099.75 503.348L1099.75 503.751L1099.75 550.472L1099.75 550.83L1100.02 551.144L1152.34 615.2L1152.12 614.528L1152.12 713.21L1152.12 713.614L1152.34 713.882L1254.25 838.59L1253.98 837.919L1253.98 970.914L1254.25 970.242L1211.6 1022.43L1211.38 1022.7L1211.38 1023.1L1211.38 1148.61L1212.95 1148.61L1212.95 1023.1L1212.72 1023.77L1255.32 971.585L1255.55 971.317L1255.55 970.914L1255.55 837.919L1255.55 837.515L1255.32 837.247L1153.46 712.538L1153.68 713.21L1153.68 614.528L1153.68 614.125L1153.46 613.811L1101.1 549.755L1101.36 550.472L1101.36 503.751L1101.1 504.423L1122.06 478.8L1122.28 478.532L1122.28 478.128L1122.28 449.46L1122.28 449.102L1122.06 448.788L1101.1 423.166L1101.36 423.837L1101.36 0.842234L1099.75 0.842234Z" fill="url(#paint29_linear_2_23)"/>
<path opacity="0.41" d="M1108.4 0.842234L1108.4 423.837L1108.4 424.241L1108.62 424.554L1129.54 450.177L1129.32 449.46L1129.32 478.128L1129.54 477.412L1108.62 503.034L1108.4 503.348L1108.4 503.751L1108.4 550.472L1108.4 550.83L1108.62 551.144L1160.94 615.2L1160.72 614.528L1160.72 713.21L1160.72 713.614L1160.94 713.882L1262.85 838.59L1262.62 837.919L1262.62 970.914L1262.85 970.242L1220.2 1022.43L1219.98 1022.7L1219.98 1023.1L1219.98 1148.61L1221.55 1148.61L1221.55 1023.1L1221.32 1023.77L1263.97 971.585L1264.19 971.317L1264.19 970.914L1264.19 837.919L1264.19 837.515L1263.97 837.247L1162.06 712.538L1162.28 713.21L1162.28 614.528L1162.28 614.125L1162.06 613.811L1109.74 549.755L1109.96 550.472L1109.96 503.751L1109.74 504.423L1130.66 478.8L1130.88 478.532L1130.88 478.128L1130.88 449.46L1130.88 449.102L1130.66 448.788L1109.74 423.166L1109.96 423.837L1109.96 0.842234L1108.4 0.842234Z" fill="url(#paint30_linear_2_23)"/>
</g>
<path opacity="0.09" d="M243.425 525.126L148.282 430.072C152.313 425.459 152.179 418.426 147.744 413.991C143.354 409.601 136.277 409.422 131.663 413.454L45.1198 327L44 328.12L130.543 414.573C126.512 419.187 126.646 426.22 131.081 430.655C135.47 435.045 142.548 435.224 147.162 431.192L242.306 526.246L243.425 525.126ZM132.2 429.535C128.214 425.548 128.214 419.098 132.2 415.111C136.187 411.124 142.638 411.124 146.624 415.111C150.611 419.098 150.611 425.548 146.624 429.535C142.638 433.522 136.142 433.522 132.2 429.535Z" fill="url(#paint31_linear_2_23)"/>
<g opacity="0.92">
<g opacity="0.92">
<path opacity="0.92" d="M1119.01 728.037C1118.83 728.306 1156.6 721.901 1202.55 730.098C1248.78 737.668 1281.48 758.184 1281.26 757.96C1281.3 758.095 1247.48 740.804 1201.97 733.368C1156.69 725.305 1118.97 728.306 1119.01 728.037Z" fill="white"/>
</g>
</g>
<path opacity="0.61" d="M157.227 651.59C151.615 655.128 146.598 659.369 142.285 664.169L143.476 665.144C147.536 660.253 152.265 655.849 157.606 652.132L157.227 651.59ZM225.677 675.593C218.35 669.944 209.345 666.641 199.979 666.335C203.715 666.786 207.468 667.706 211.132 669.168C214.795 670.63 218.152 672.525 221.184 674.763L220.011 676.495C221.093 677.163 222.14 677.903 223.151 678.679L223.782 677.903C226.76 680.375 229.431 683.245 231.705 686.493L231.145 686.872C233.311 689.832 235.098 693.134 236.415 696.744C236.649 697.393 236.884 698.061 237.083 698.711L237.66 698.548C238.183 700.191 238.598 701.833 238.923 703.493C241.919 718.671 236.668 734.119 225.713 744.387L226.381 745.199C230.947 741.518 234.682 737.006 237.443 731.971C240.71 725.24 242.406 717.642 242.099 709.683L242.912 709.665C242.857 707.175 242.587 704.666 242.099 702.176C241.648 699.884 241.017 697.61 240.187 695.354C238.743 691.438 236.794 687.828 234.448 684.598L233.979 684.923C231.542 681.476 228.709 678.408 225.533 675.773L225.677 675.593ZM228.745 839.819C255.869 832.727 280.971 817.279 299.794 794.124L272.742 771.746C290.807 748.809 297.141 719.699 291.781 692.448C288.443 675.484 280.592 659.26 268.231 645.671L267.509 646.321C270.36 649.443 273.031 652.781 275.467 656.301L268.592 661.047C275.648 671.207 280.34 682.541 282.65 694.253C283.696 699.631 284.256 705.081 284.31 710.531C284.526 733.18 276.117 755.865 258.991 773.316C257.926 774.381 256.861 775.428 255.761 776.439L260.417 781.69C230.911 808.49 188.881 814.102 154.141 798.311L153.817 798.997C153.528 798.853 153.239 798.708 152.95 798.564C147.266 795.604 141.978 792.193 137.124 788.368C136.149 787.664 135.193 786.942 134.254 786.184L111.841 813.2C88.6873 794.395 73.2035 769.328 66.1113 742.222L64.072 742.727C63.8013 741.5 63.5487 740.291 63.296 739.064C59.9575 722.099 59.8311 704.414 63.2419 686.998C64.1262 681.296 65.3714 675.611 66.9775 669.998L65.0465 669.421C68.2768 658.719 72.8065 648.324 78.6535 638.488L76.6323 637.279C75.4773 639.102 74.3765 640.961 73.3118 642.82L57.6295 634.265C51.7463 645.238 47.2528 656.734 44.1127 668.518L62.7185 673.427C57.3768 693.549 56.8174 714.466 60.7695 734.516C67.2121 767.289 85.6735 797.752 114.981 818.758C132.973 831.644 153.041 839.512 173.505 842.652C192.201 846.298 211.186 845.901 229.287 841.84L228.745 839.819ZM179.93 808.039C177.692 807.587 175.436 807.082 173.198 806.469C179.226 807.894 185.344 808.742 191.516 808.995C187.636 808.905 183.774 808.58 179.93 808.039ZM171.394 672.11L158.166 652.944C154.863 655.254 151.795 657.817 148.98 660.596C150.839 658.899 152.788 657.311 154.791 655.849L168.867 673.987C169.679 673.337 170.528 672.705 171.394 672.11ZM160.963 774.58L161.577 773.443C147.861 766.044 136.781 754.205 130.41 739.659L132.738 738.63C132.269 737.548 131.836 736.429 131.421 735.31C130.086 731.718 129.075 728.073 128.371 724.428C127.974 722.442 127.685 720.457 127.451 718.472L118.211 719.753C118.464 721.901 118.789 724.067 119.222 726.214C120.034 730.347 121.171 734.462 122.669 738.54C125.7 746.77 129.941 754.223 135.103 760.756L139.813 756.93C145.714 764.203 152.932 770.176 160.963 774.58ZM167.442 684.833C169.679 682.144 172.296 679.725 175.22 677.668L172.946 674.384C169.697 676.657 166.828 679.328 164.356 682.306L167.442 684.833ZM45.1233 642.206C50.5372 630.403 57.1603 619.521 64.7758 609.668L62.5561 608.007C38.3559 640.203 25.7235 681.061 29.9644 724.301C30.5058 729.733 31.2818 735.075 32.3104 740.309C32.8157 742.853 33.3751 745.362 33.9707 747.852C33.6458 746.409 33.3391 744.947 33.0503 743.485C26.5717 710.459 30.0005 675.214 45.1233 642.206ZM175.003 550.348C206.801 545.655 238.598 550.636 266.715 563.612C300.822 579.367 329.498 606.87 346.137 643.072L344.206 633.255C341.03 627.299 337.529 621.597 333.721 616.164L332.205 617.211C323.398 604.488 312.949 593.245 301.273 583.644L302.194 582.525C300.353 581.045 298.494 579.62 296.599 578.23L296.455 578.428C293.64 576.263 290.734 574.169 287.757 572.166C248.452 546.991 198.933 538.707 151.398 552.928L151.453 553.109C159.194 550.979 166.972 549.445 174.75 548.471L175.003 550.348ZM162.244 680.538C163.147 679.455 164.085 678.426 165.078 677.433C164.031 678.372 163.02 679.346 162.046 680.375L162.244 680.538ZM0.999964 755.811C1.794 759.348 2.69632 762.849 3.68887 766.332L3.86933 766.278C2.82264 762.831 1.84814 759.348 0.999964 755.811ZM105.525 576.75C92.8199 585.142 81.5409 595.158 71.8861 606.401L73.2757 607.538C74.178 606.491 75.0803 605.463 76.0007 604.452C84.7532 594.364 94.823 585.286 106.048 577.508L105.525 576.75ZM58.1709 742.655C66.5805 777.539 88.2181 809.139 121.279 829.37C123.733 830.868 126.224 832.294 128.732 833.629L129.256 832.655C101.464 816.882 78.9242 791.616 67.0136 759.294C64.3788 752.147 62.3757 744.947 60.95 737.71C60.3003 734.444 59.777 731.159 59.38 727.893L55.5 728.434C55.879 731.267 56.3482 734.065 56.8896 736.862C57.2866 738.793 57.7017 740.724 58.1709 742.655ZM94.9133 835.795C64.0179 811.449 44.1127 777.413 36.8942 740.778C36.2626 737.602 35.7392 734.407 35.3061 731.213L34.7828 731.285C35.252 735.021 35.8475 738.757 36.5874 742.492C38.2657 750.992 40.6298 759.475 43.7157 767.866C57.7738 806.035 84.5005 835.885 117.363 854.437L118.626 852.127C110.289 847.399 102.33 841.949 94.9133 835.795ZM103.612 573.971L101.392 570.759C88.4888 579.656 76.921 590.303 67.0316 602.322C67.0136 602.341 66.9955 602.359 66.9775 602.377L69.8649 604.741C71.9944 602.25 74.196 599.832 76.4879 597.468C84.5546 588.751 93.632 580.865 103.612 573.971ZM226.183 775.554C232.625 772.739 238.526 769.003 243.76 764.528C250.726 758.103 256.284 750.415 260.218 741.951C266.372 728.596 268.447 713.401 265.488 698.332C265 695.877 264.387 693.441 263.647 691.005L265.361 690.499C263.105 683.118 259.695 676.279 255.346 670.197L253.974 671.153C250.256 665.811 245.853 661.083 240.944 657.041L241.811 655.976C229.16 645.924 213.063 640.185 195.829 640.708L196.171 663.989C207.739 663.537 218.495 667.291 227.031 673.969L240.313 657.817C245.149 661.805 249.48 666.461 253.162 671.731L236.18 683.443C240.096 688.821 242.894 695.083 244.247 701.941C244.572 703.638 244.824 705.37 244.969 707.139C245.041 707.987 245.095 708.835 245.113 709.683L265.415 709.376C266.282 737.674 250.166 762.939 225.876 774.796L226.183 775.554ZM132.666 772.45C139.073 778.73 146.201 783.838 153.762 787.79L154.015 787.321C136.835 777.341 122.921 761.55 115.522 741.464C113.862 736.97 112.599 732.44 111.714 727.893C111.245 725.546 110.884 723.182 110.614 720.818L106.932 721.323C107.167 723.038 107.456 724.752 107.78 726.449C111.137 743.359 119.42 759.456 132.666 772.45ZM96.9345 705.009C97.2052 698.873 98.0533 692.755 99.479 686.728C98.8654 688.965 98.3601 691.185 97.909 693.441C97.3676 697.303 97.0427 701.165 96.9345 705.009ZM153.293 719.826C153.564 721.215 153.907 722.587 154.304 723.94L158.076 722.605C157.733 721.432 157.444 720.259 157.209 719.05C155.766 711.704 156.343 703.872 159.321 696.383C160.674 692.99 162.443 689.886 164.518 687.107L161.198 684.869C158.96 687.901 157.065 691.239 155.603 694.903C152.337 703.15 151.705 711.759 153.293 719.826ZM333.342 795.334C352.976 763.282 360.014 727.062 355.846 692.448L351.262 669.096C341.661 634.121 320.276 602.322 288.623 580.179L276.785 596.782C305.785 617.013 324.932 646.483 332.71 678.769C333.161 680.682 333.595 682.613 333.974 684.544C340.506 717.822 335.074 753.465 315.963 784.668C314.502 787.05 312.968 789.378 311.398 791.652L325.979 802.029C288.425 855.61 223.097 879.793 161.685 866.98L161.414 868.153C226.543 882.716 296.527 855.394 333.342 795.334ZM147.518 637.55C140.553 641.971 134.363 647.295 129.021 653.287L130.447 654.46C135.482 648.378 141.383 642.91 148.024 638.29L147.518 637.55ZM185.777 671.027L186.138 672.254C190.613 670.81 195.161 670.197 199.636 670.341C194.944 669.727 190.27 669.998 185.777 671.027ZM249.336 773.371C272.237 754.836 283.57 724.77 277.759 695.228C276.947 691.077 275.792 686.926 274.276 682.811C259.388 642.405 215.571 621.055 174.859 633.526L174.967 633.904C178.721 632.93 182.474 632.244 186.246 631.811L187.401 640.149C201.621 637.911 215.86 640.076 228.438 645.888C233.545 648.252 238.382 651.211 242.839 654.713L246.846 649.84C252.404 654.424 257.403 659.784 261.626 665.865L256.699 669.258C260.29 674.311 263.286 679.924 265.542 686.042C266.029 687.377 266.48 688.713 266.895 690.066L272.598 688.406C273.428 691.113 274.114 693.82 274.637 696.545C280.231 725.005 269.927 753.952 248.722 772.595L249.336 773.371ZM179.082 694.379C180.453 692.755 182.023 691.312 183.774 690.048L183.467 689.615C181.446 690.68 179.623 691.997 178.017 693.513L179.082 694.379ZM192.689 756.298C180.309 755.54 168.651 749.603 160.801 739.876L162.1 738.811C161.613 738.197 161.143 737.584 160.692 736.952L157.191 739.677C159.339 742.547 161.811 745.163 164.554 747.473C173.595 755.089 185.344 759.312 197.976 758.5L197.94 756.713C196.171 756.677 194.421 756.533 192.689 756.298ZM181.951 696.726C183.088 695.354 184.405 694.145 185.885 693.08L185.596 692.665C185.271 692.827 184.965 692.99 184.658 693.17C183.467 694.109 182.402 695.156 181.428 696.292L181.951 696.726ZM213.55 690.337L218.657 684.129C221.057 686.132 223.205 688.46 225.064 691.077L218.729 695.444C220.191 697.375 221.4 699.559 222.285 701.941C222.411 702.266 222.519 702.609 222.627 702.934L229.936 700.822C230.387 702.23 230.766 703.638 231.037 705.063C233.437 717.299 229.323 729.733 220.624 738.125L221.31 738.955C231.669 730.618 236.794 717.046 234.177 703.71C233.816 701.833 233.293 699.974 232.607 698.133C225.84 679.762 205.772 670.143 187.293 676.134L187.419 676.549C189.061 676.188 190.703 675.936 192.346 675.791L193.717 685.807C200.791 684.454 207.974 686.222 213.55 690.337ZM218.82 703.222C219.217 704.305 219.523 705.424 219.74 706.525C221.31 714.502 218.224 722.623 212.016 727.604L212.431 728.127C217.015 724.464 219.939 719.14 220.642 713.383C220.751 711.326 220.624 709.214 220.209 707.139C219.993 706.056 219.704 704.973 219.343 703.908L219.704 703.8C219.614 703.529 219.523 703.277 219.433 703.024C218.639 700.876 217.556 698.927 216.239 697.195L216.004 697.357C214.886 695.805 213.622 694.398 212.233 693.152C206.458 688.659 198.59 687.089 191.191 689.633L191.317 690.084C191.768 689.994 192.219 689.94 192.67 689.886C203.444 686.854 214.849 692.557 218.82 703.222ZM164.356 723.236C165.637 726.738 167.424 729.914 169.571 732.729L175.581 727.838C177.656 730.419 180.218 732.549 183.052 734.119L184.369 731.7C183.413 731.069 182.492 730.365 181.626 729.589C180.255 728.524 179.009 727.297 177.909 725.925L178.107 725.763C176.699 723.868 175.526 721.757 174.66 719.429C174.191 718.165 173.848 716.884 173.595 715.603C173.379 714.466 173.235 713.329 173.162 712.192L162.244 713.69C162.353 715.025 162.533 716.361 162.804 717.696C163.183 719.555 163.688 721.396 164.356 723.236ZM177.223 714.863C177.006 713.798 176.88 712.733 176.844 711.686L176.176 711.777C176.23 712.823 176.357 713.888 176.555 714.953C176.79 716.108 177.096 717.263 177.53 718.4C179.19 722.894 182.149 726.539 185.831 729.066L186.156 728.47C182.619 726.034 179.767 722.496 178.143 718.165C177.746 717.064 177.439 715.964 177.223 714.863Z" fill="url(#paint32_linear_2_23)"/>
</g>
<defs>
<linearGradient id="paint0_linear_2_23" x1="663.117" y1="911.96" x2="663.117" y2="623.756" gradientUnits="userSpaceOnUse">
<stop stop-color="white"/>
<stop offset="0.525095" stop-color="#57B536"/>
<stop offset="1" stop-color="white"/>
</linearGradient>
<linearGradient id="paint1_linear_2_23" x1="660.654" y1="907.033" x2="660.654" y2="618.828" gradientUnits="userSpaceOnUse">
<stop stop-color="white"/>
<stop offset="0.525095" stop-color="#57B536"/>
<stop offset="1" stop-color="white"/>
</linearGradient>
<linearGradient id="paint2_linear_2_23" x1="658.19" y1="902.106" x2="658.19" y2="613.901" gradientUnits="userSpaceOnUse">
<stop stop-color="white"/>
<stop offset="0.525095" stop-color="#57B536"/>
<stop offset="1" stop-color="white"/>
</linearGradient>
<linearGradient id="paint3_linear_2_23" x1="655.726" y1="703.576" x2="655.726" y2="415.371" gradientUnits="userSpaceOnUse">
<stop stop-color="white"/>
<stop offset="0.525095" stop-color="#57B536"/>
<stop offset="1" stop-color="white"/>
</linearGradient>
<linearGradient id="paint4_linear_2_23" x1="663.117" y1="569.416" x2="663.117" y2="281.212" gradientUnits="userSpaceOnUse">
<stop stop-color="white"/>
<stop offset="0.525095" stop-color="#57B536"/>
<stop offset="1" stop-color="white"/>
</linearGradient>
<linearGradient id="paint5_linear_2_23" x1="658.235" y1="594.053" x2="658.235" y2="305.849" gradientUnits="userSpaceOnUse">
<stop stop-color="white"/>
<stop offset="0.525095" stop-color="#57B536"/>
<stop offset="1" stop-color="white"/>
</linearGradient>
<linearGradient id="paint6_linear_2_23" x1="660.9" y1="589.125" x2="660.9" y2="300.921" gradientUnits="userSpaceOnUse">
<stop stop-color="white"/>
<stop offset="0.525095" stop-color="#57B536"/>
<stop offset="1" stop-color="white"/>
</linearGradient>
<linearGradient id="paint7_linear_2_23" x1="663.117" y1="584.198" x2="663.117" y2="295.994" gradientUnits="userSpaceOnUse">
<stop stop-color="white"/>
<stop offset="0.525095" stop-color="#57B536"/>
<stop offset="1" stop-color="white"/>
</linearGradient>
<linearGradient id="paint8_linear_2_23" x1="663.117" y1="653.092" x2="663.117" y2="364.888" gradientUnits="userSpaceOnUse">
<stop stop-color="white"/>
<stop offset="0.525095" stop-color="#57B536"/>
<stop offset="1" stop-color="white"/>
</linearGradient>
<linearGradient id="paint9_linear_2_23" x1="835" y1="385.204" x2="370" y2="385.204" gradientUnits="userSpaceOnUse">
<stop stop-color="white"/>
<stop offset="0.525095" stop-color="#57B536"/>
<stop offset="1" stop-color="white"/>
</linearGradient>
<linearGradient id="paint10_linear_2_23" x1="458.398" y1="1148.6" x2="458.398" y2="0.841784" gradientUnits="userSpaceOnUse">
<stop stop-color="white"/>
<stop offset="0.525095" stop-color="#57B536"/>
<stop offset="1" stop-color="white"/>
</linearGradient>
<linearGradient id="paint11_linear_2_23" x1="862.892" y1="1148.6" x2="862.892" y2="0.841784" gradientUnits="userSpaceOnUse">
<stop stop-color="white"/>
<stop offset="0.525095" stop-color="#57B536"/>
<stop offset="1" stop-color="white"/>
</linearGradient>
<linearGradient id="paint12_linear_2_23" x1="850.573" y1="1148.6" x2="850.573" y2="0.841784" gradientUnits="userSpaceOnUse">
<stop stop-color="white"/>
<stop offset="0.525095" stop-color="#57B536"/>
<stop offset="1" stop-color="white"/>
</linearGradient>
<linearGradient id="paint13_linear_2_23" x1="838.277" y1="1148.6" x2="838.277" y2="0.841784" gradientUnits="userSpaceOnUse">
<stop stop-color="white"/>
<stop offset="0.525095" stop-color="#57B536"/>
<stop offset="1" stop-color="white"/>
</linearGradient>
<linearGradient id="paint14_linear_2_23" x1="1041.53" y1="1148.6" x2="1041.53" y2="0.841784" gradientUnits="userSpaceOnUse">
<stop stop-color="white"/>
<stop offset="0.525095" stop-color="#57B536"/>
<stop offset="1" stop-color="white"/>
</linearGradient>
<linearGradient id="paint15_linear_2_23" x1="1029.21" y1="1148.6" x2="1029.21" y2="0.841784" gradientUnits="userSpaceOnUse">
<stop stop-color="white"/>
<stop offset="0.525095" stop-color="#57B536"/>
<stop offset="1" stop-color="white"/>
</linearGradient>
<linearGradient id="paint16_linear_2_23" x1="1016.92" y1="1148.6" x2="1016.92" y2="0.841784" gradientUnits="userSpaceOnUse">
<stop stop-color="white"/>
<stop offset="0.525095" stop-color="#57B536"/>
<stop offset="1" stop-color="white"/>
</linearGradient>
<linearGradient id="paint17_linear_2_23" x1="352.727" y1="1162.31" x2="352.727" y2="14.5492" gradientUnits="userSpaceOnUse">
<stop stop-color="white"/>
<stop offset="0.525095" stop-color="#57B536"/>
<stop offset="1" stop-color="white"/>
</linearGradient>
<linearGradient id="paint18_linear_2_23" x1="340.408" y1="1162.31" x2="340.408" y2="14.5492" gradientUnits="userSpaceOnUse">
<stop stop-color="white"/>
<stop offset="0.525095" stop-color="#57B536"/>
<stop offset="1" stop-color="white"/>
</linearGradient>
<linearGradient id="paint19_linear_2_23" x1="328.09" y1="1162.31" x2="328.09" y2="14.5492" gradientUnits="userSpaceOnUse">
<stop stop-color="white"/>
<stop offset="0.525095" stop-color="#57B536"/>
<stop offset="1" stop-color="white"/>
</linearGradient>
<linearGradient id="paint20_linear_2_23" x1="610.475" y1="1148.6" x2="610.475" y2="0.841784" gradientUnits="userSpaceOnUse">
<stop stop-color="white"/>
<stop offset="0.525095" stop-color="#57B536"/>
<stop offset="1" stop-color="white"/>
</linearGradient>
<linearGradient id="paint21_linear_2_23" x1="622.794" y1="1148.6" x2="622.794" y2="0.841784" gradientUnits="userSpaceOnUse">
<stop stop-color="white"/>
<stop offset="0.525095" stop-color="#57B536"/>
<stop offset="1" stop-color="white"/>
</linearGradient>
<linearGradient id="paint22_linear_2_23" x1="635.112" y1="1148.6" x2="635.112" y2="0.841784" gradientUnits="userSpaceOnUse">
<stop stop-color="white"/>
<stop offset="0.525095" stop-color="#57B536"/>
<stop offset="1" stop-color="white"/>
</linearGradient>
<linearGradient id="paint23_linear_2_23" x1="354.188" y1="1148.6" x2="354.188" y2="0.841791" gradientUnits="userSpaceOnUse">
<stop stop-color="white"/>
<stop offset="0.525095" stop-color="#57B536"/>
<stop offset="1" stop-color="white"/>
</linearGradient>
<linearGradient id="paint24_linear_2_23" x1="345.588" y1="1148.6" x2="345.588" y2="0.841791" gradientUnits="userSpaceOnUse">
<stop stop-color="white"/>
<stop offset="0.525095" stop-color="#57B536"/>
<stop offset="1" stop-color="white"/>
</linearGradient>
<linearGradient id="paint25_linear_2_23" x1="371.435" y1="1148.6" x2="371.435" y2="0.841791" gradientUnits="userSpaceOnUse">
<stop stop-color="white"/>
<stop offset="0.525095" stop-color="#57B536"/>
<stop offset="1" stop-color="white"/>
</linearGradient>
<linearGradient id="paint26_linear_2_23" x1="380.08" y1="1148.6" x2="380.08" y2="0.841791" gradientUnits="userSpaceOnUse">
<stop stop-color="white"/>
<stop offset="0.525095" stop-color="#57B536"/>
<stop offset="1" stop-color="white"/>
</linearGradient>
<linearGradient id="paint27_linear_2_23" x1="1151.8" y1="1148.6" x2="1151.8" y2="0.841791" gradientUnits="userSpaceOnUse">
<stop stop-color="white"/>
<stop offset="0.525095" stop-color="#57B536"/>
<stop offset="1" stop-color="white"/>
</linearGradient>
<linearGradient id="paint28_linear_2_23" x1="1160.45" y1="1148.6" x2="1160.45" y2="0.841791" gradientUnits="userSpaceOnUse">
<stop stop-color="white"/>
<stop offset="0.525095" stop-color="#57B536"/>
<stop offset="1" stop-color="white"/>
</linearGradient>
<linearGradient id="paint29_linear_2_23" x1="1177.65" y1="1148.6" x2="1177.65" y2="0.841791" gradientUnits="userSpaceOnUse">
<stop stop-color="white"/>
<stop offset="0.525095" stop-color="#57B536"/>
<stop offset="1" stop-color="white"/>
</linearGradient>
<linearGradient id="paint30_linear_2_23" x1="1186.29" y1="1148.6" x2="1186.29" y2="0.841791" gradientUnits="userSpaceOnUse">
<stop stop-color="white"/>
<stop offset="0.525095" stop-color="#57B536"/>
<stop offset="1" stop-color="white"/>
</linearGradient>
<linearGradient id="paint31_linear_2_23" x1="143.709" y1="526.244" x2="143.709" y2="327" gradientUnits="userSpaceOnUse">
<stop stop-color="white"/>
<stop offset="0.525095" stop-color="#57B536"/>
<stop offset="1" stop-color="white"/>
</linearGradient>
<linearGradient id="paint32_linear_2_23" x1="0.999962" y1="709" x2="357" y2="632.5" gradientUnits="userSpaceOnUse">
<stop stop-color="#D8F4CF"/>
<stop offset="1" stop-color="#F4FAF6"/>
</linearGradient>
<clipPath id="clip0_2_23">
<rect width="1161.48" height="1445.28" fill="white" transform="translate(-119 1162.32) rotate(-90)"/>
</clipPath>
</defs>
</svg>
