<svg width="82" height="88" viewBox="0 0 82 88" fill="none" xmlns="http://www.w3.org/2000/svg">
<ellipse cx="34.5" cy="44" rx="34.5" ry="34" fill="#E9F5E1"/>
<path d="M48.8406 68.0201H54.3422C56.3595 68.0201 58.01 66.3696 58.01 64.3523C58.01 62.335 56.3595 60.6845 54.3422 60.6845H45.1728" stroke="#35A535" stroke-width="3" stroke-linejoin="round"/>
<path d="M48.8406 57.0167V79.0234" stroke="#35A535" stroke-width="3" stroke-linejoin="round"/>
<path d="M54.3422 60.6845V57.0167" stroke="#35A535" stroke-width="3" stroke-linejoin="round"/>
<path d="M54.3422 77.1895V79.0234" stroke="#35A535" stroke-width="3" stroke-linejoin="round"/>
<path d="M48.8406 68.0201H56.1761C58.1934 68.0201 59.8439 69.6706 59.8439 71.6878C59.8439 73.7051 58.1934 75.3556 56.1761 75.3556H45.1728" stroke="#35A535" stroke-width="3" stroke-linejoin="round"/>
<path d="M52.5083 86.3589C62.6366 86.3589 70.8472 78.1483 70.8472 68.02C70.8472 57.8917 62.6366 49.6811 52.5083 49.6811C42.38 49.6811 34.1694 57.8917 34.1694 68.02C34.1694 78.1483 42.38 86.3589 52.5083 86.3589Z" stroke="url(#paint0_linear_2_251)" stroke-width="3" stroke-linejoin="round"/>
<path d="M56.1578 18.505C54.9107 18.505 53.682 18.3583 52.5083 18.0832C52.5083 18.2299 52.49 18.3583 52.49 18.505V44.1795" stroke="#032305" stroke-width="3" stroke-linejoin="round"/>
<path d="M72.6444 2.42178C71.4708 2.16504 70.2604 1.99997 68.995 1.99997C60.0273 1.99997 52.7284 9.17046 52.5083 18.0832C53.682 18.3399 54.8924 18.505 56.1578 18.505C65.1438 18.505 72.4244 11.3345 72.6444 2.42178Z" stroke="#032305" stroke-width="3" stroke-linejoin="round"/>
<path d="M63.4933 38.6779C62.2463 38.6779 61.0176 38.5312 59.8439 38.2561C59.8439 38.4028 59.8256 38.5312 59.8256 38.6779V44.1796" stroke="#032305" stroke-width="3" stroke-linejoin="round"/>
<path d="M79.98 22.5946C78.8063 22.3379 77.5959 22.1728 76.3306 22.1728C67.3628 22.1728 60.064 29.3433 59.8439 38.256C61.0176 38.5128 62.228 38.6778 63.4933 38.6778C72.4794 38.6778 79.7599 31.5073 79.98 22.5946Z" stroke="#032305" stroke-width="3" stroke-linejoin="round"/>
<path d="M41.4867 27.6745C42.7337 27.6745 43.9624 27.5278 45.1361 27.2527C45.1361 27.3994 45.1544 27.5278 45.1544 27.6745V44.1795" stroke="#032305" stroke-width="3" stroke-linejoin="round"/>
<path d="M25 11.5912C26.1737 11.3345 27.3841 11.1694 28.6494 11.1694C37.6172 11.1694 44.916 18.3399 45.1361 27.2526C43.9624 27.5094 42.7521 27.6744 41.4867 27.6744C32.5189 27.6744 25.2201 20.504 25 11.5912Z" stroke="#032305" stroke-width="3" stroke-linejoin="round"/>
<defs>
<linearGradient id="paint0_linear_2_251" x1="30.0637" y1="44.1239" x2="72.5973" y2="43.3069" gradientUnits="userSpaceOnUse">
<stop stop-color="#6ABD36"/>
<stop offset="1" stop-color="#058E34"/>
</linearGradient>
</defs>
</svg>
