<svg width="89" height="84" fill="none" xmlns="http://www.w3.org/2000/svg"><circle cx="55" cy="44" r="34" fill="#E9F5E1"/><path d="M59.06 59.04h-.01c-.03-.09-.06-.19-.09-.28 0 0-3.54-8.86-5.38-12.34-.14-.3-.33-.58-.6-.99-.88-1.33-2.78-1.6-4.09-1.11-1.07.4-1.67 1.13-2.01 2.09-.95-2.09-3.15-2.96-5.15-2.19-1.28.49-2.1 1.55-2.45 2.8-1.09-1.75-3.14-2.43-5.02-1.71-1.63.63-2.65 2.13-2.65 3.85l-5.12-13.35c-.9-2.35-3.24-3.64-5.22-2.88-1.98.76-2.86 3.28-1.95 5.64l8.97 23.39a115.49 115.49 0 00-2.74-3.21c-2.54-2.81-5.79-3.9-7.65-2.69-2.78 1.8 1.26 5.77 3.54 9.1 1.87 2.73 5.64 7.85 6.72 9.03 1.89 2.04 3.72 3.7 5.29 4.69 5.11 3.69 10.95 3.91 16.48 1.79 6.66-2.59 13.67-9.8 9.13-21.63z" stroke="url(#paint0_linear_2_270)" stroke-width="2.5" stroke-miterlimit="10" stroke-linecap="round" stroke-linejoin="round"/><path d="M14.12 35.85c-1.4-3.85-4.46-6.91-8.31-8.31V14.12c3.85-1.4 6.91-4.46 8.31-8.31h42.81c1.4 3.85 4.46 6.91 8.31 8.31v13.42c-3.85 1.4-6.91 4.46-8.31 8.31h-25" stroke="url(#paint1_linear_2_270)" stroke-width="2.5" stroke-miterlimit="10" stroke-linecap="round" stroke-linejoin="round"/><path d="M14.39 39.66H2V2h67.06v37.66H33.17M2.19 9.98c3.92-.83 7-3.92 7.81-7.85m51.08.05c.83 3.96 3.99 7.07 7.98 7.84M9.97 39.43c-.84-3.9-3.93-6.96-7.84-7.76m66.77.01c-3.93.82-7.02 3.92-7.83 7.86" stroke="#032305" stroke-width="2.5" stroke-miterlimit="10" stroke-linecap="round" stroke-linejoin="round"/><path d="M31.84 21.02h5.502a3.679 3.679 0 003.668-3.668 3.679 3.679 0 00-3.668-3.667h-9.17m3.668-3.668v22.006m5.502-18.338v-3.668m0 20.173v1.833" stroke="#282D33" stroke-width="3" stroke-linejoin="round"/><path d="M31.84 21.02h7.336a3.679 3.679 0 013.668 3.668 3.679 3.679 0 01-3.668 3.668H28.173" stroke="#282D33" stroke-width="3" stroke-linejoin="round"/><defs><linearGradient id="paint0_linear_2_270" x1="12.084" y1="25.241" x2="62.588" y2="24.384" gradientUnits="userSpaceOnUse"><stop stop-color="#6ABD36"/><stop offset="1" stop-color="#058E34"/></linearGradient><linearGradient id="paint1_linear_2_270" x1="-.843" y1="1.259" x2="68.002" y2="-1.358" gradientUnits="userSpaceOnUse"><stop stop-color="#6ABD36"/><stop offset="1" stop-color="#058E34"/></linearGradient></defs></svg>