<svg width="108" height="93" fill="none" xmlns="http://www.w3.org/2000/svg"><ellipse cx="73.258" cy="34" rx="34.258" ry="34" fill="#E9F5E1"/><path d="M93.658 56.895V78.21m-85.263 0V31.316a4.276 4.276 0 014.263-4.263h34.105M2 82.474v4.263A4.276 4.276 0 006.263 91H95.79a4.276 4.276 0 004.264-4.263v-4.263H2zm44.763-4.264v-4.263a8.524 8.524 0 00-8.526-8.526H23.316a8.524 8.524 0 00-8.526 8.526v4.263" stroke="#032305" stroke-width="3" stroke-linejoin="round"/><path d="M30.776 59.026a7.46 7.46 0 100-14.92 7.46 7.46 0 000 14.92z" stroke="#032305" stroke-width="3" stroke-linejoin="round"/><path d="M91.526 10h8.527v40.5H70.21L57.421 63.29V50.5h-8.526V10h42.631z" stroke="url(#paint0_linear_2_286)" stroke-width="3" stroke-linejoin="round"/><path d="M57.421 44.105V35.58m8.526 8.525v-12.79m8.527 12.79V18.526M83 44.105V24.921m8.526 19.184v-27.71" stroke="#35A535" stroke-width="3" stroke-linejoin="round"/><defs><linearGradient id="paint0_linear_2_286" x1="43.168" y1="1.926" x2="102.495" y2=".832" gradientUnits="userSpaceOnUse"><stop stop-color="#6ABD36"/><stop offset="1" stop-color="#058E34"/></linearGradient></defs></svg>