<svg width="82" height="88" fill="none" xmlns="http://www.w3.org/2000/svg"><ellipse cx="34.5" cy="44" rx="34.5" ry="34" fill="#E9F5E1"/><path d="M48.84 68.02h5.502a3.679 3.679 0 003.668-3.668 3.679 3.679 0 00-3.668-3.668h-9.17m3.668-3.667v22.006m5.502-18.339v-3.667m0 20.173v1.833M48.84 68.02h7.336a3.679 3.679 0 013.668 3.668 3.679 3.679 0 01-3.668 3.668H45.173" stroke="#35A535" stroke-width="3" stroke-linejoin="round"/><path d="M52.508 86.359c10.129 0 18.34-8.21 18.34-18.339 0-10.128-8.211-18.339-18.34-18.339-10.128 0-18.339 8.21-18.339 18.339 0 10.128 8.211 18.339 18.34 18.339z" stroke="url(#paint0_linear_2_251)" stroke-width="3" stroke-linejoin="round"/><path d="M56.158 18.505c-1.247 0-2.476-.147-3.65-.422 0 .147-.018.275-.018.422v25.674" stroke="#032305" stroke-width="3" stroke-linejoin="round"/><path d="M72.644 2.422C71.471 2.165 70.26 2 68.995 2c-8.968 0-16.267 7.17-16.487 16.083 1.174.257 2.384.422 3.65.422 8.986 0 16.266-7.17 16.486-16.083zm-9.151 36.256c-1.247 0-2.475-.147-3.65-.422 0 .147-.017.275-.017.422v5.502" stroke="#032305" stroke-width="3" stroke-linejoin="round"/><path d="M79.98 22.595c-1.174-.257-2.384-.422-3.65-.422-8.967 0-16.266 7.17-16.486 16.083 1.174.257 2.384.422 3.65.422 8.985 0 16.266-7.17 16.486-16.083zm-38.493 5.079a16.04 16.04 0 003.65-.421c0 .146.017.275.017.421V44.18" stroke="#032305" stroke-width="3" stroke-linejoin="round"/><path d="M25 11.591c1.174-.256 2.384-.422 3.65-.422 8.967 0 16.266 7.17 16.486 16.084-1.174.256-2.384.421-3.65.421-8.967 0-16.266-7.17-16.486-16.083z" stroke="#032305" stroke-width="3" stroke-linejoin="round"/><defs><linearGradient id="paint0_linear_2_251" x1="30.064" y1="44.124" x2="72.597" y2="43.307" gradientUnits="userSpaceOnUse"><stop stop-color="#6ABD36"/><stop offset="1" stop-color="#058E34"/></linearGradient></defs></svg>